<?xml version="1.0" encoding="utf-8"?>
<!-- Generator: Adobe Illustrator 23.0.0, SVG Export Plug-In . SVG Version: 6.00 Build 0)  -->
<svg version="1.1" id="Capa_1" xmlns="http://www.w3.org/2000/svg" xmlns:xlink="http://www.w3.org/1999/xlink" x="0px" y="0px"
	 width="80px" height="80px" viewBox="0 0 80 80" enable-background="new 0 0 80 80" xml:space="preserve">
<g>
	<g>
		<path fill="#F7CE78" d="M19.6,73.7c-0.2-0.2-0.5-0.3-0.8-0.3s-0.6,0.1-0.8,0.3c-0.2,0.2-0.3,0.5-0.3,0.8s0.1,0.6,0.3,0.8c0.2,0.2,0.5,0.3,0.8,0.3
			s0.6-0.1,0.8-0.3c0.2-0.2,0.3-0.5,0.3-0.8S19.8,73.9,19.6,73.7z"/>
	</g>
</g>
<g>
	<g>
		<path fill="#F7CE78" d="M35.3,23.3H28c-0.6,0-1.2,0.5-1.2,1.2s0.5,1.2,1.2,1.2h7.4c0.6,0,1.2-0.5,1.2-1.2S36,23.3,35.3,23.3z"/>
	</g>
</g>
<g>
	<g>
		<path fill="#F7CE78" d="M47.6,46.5c0.6,0,1.2-0.5,1.2-1.2V24.2c0-2.3-1.9-4.2-4.2-4.2H18.8c-2.3,0-4.2,1.9-4.2,4.2v8.1c-3.4,2.7-6.2,6.2-8.1,10.2
			c-2,4.1-3.1,8.6-3.1,13.2V68H2.3C1.1,67.9,0,69,0,70.3v8.6C0,79.5,0.5,80,1.2,80s1.2-0.5,1.2-1.2v-8.6h20.8v8.6
			c0,0.6,0.5,1.2,1.2,1.2c0.6,0,1.2-0.5,1.2-1.2v-5.2h19c2.3,0,4.2-1.9,4.2-4.2V55.1c0-0.6-0.5-1.2-1.2-1.2s-1.2,0.5-1.2,1.2v8.7
			H28.8l3.7-5.3c0.9-1.3,1-2.9,0.3-4.2c-0.7-1.4-2.1-2.2-3.6-2.2c-0.9,0-1.7,0.3-2.4,0.8l-7.4,5.5c-0.3,0.2-0.6,0.3-0.9,0.3
			c-0.9,0-1.6-0.7-1.6-1.6v-1.4V28.9h29.5v16.4C46.4,46,46.9,46.5,47.6,46.5z M46.4,66.1v3.4l0,0c0,1-0.8,1.9-1.9,1.9h-19v-1.1
			c0-0.8-0.4-1.5-0.9-1.9c1-0.6,1.9-1.4,2.6-2.3l0,0H46.4L46.4,66.1z M18.4,61c0.8,0,1.7-0.3,2.3-0.8l7.4-5.5c0.3-0.2,0.7-0.3,1-0.3
			c0.7,0,1.2,0.4,1.6,0.9c0.3,0.6,0.3,1.3-0.1,1.8l-4.9,7C24,66.5,21.2,68,18.2,68H5.7V55.7c0-7.8,3.2-15,8.8-20.2v20.2v1.4
			C14.5,59.2,16.3,61,18.4,61z M16.9,26.6v-2.3c0-1,0.8-1.9,1.9-1.9h25.7c1,0,1.9,0.8,1.9,1.9v2.3H16.9z"/>
	</g>
</g>
<g>
	<g>
		<path fill="#F7CE78" d="M32.5,67.8c-0.2-0.2-0.5-0.3-0.8-0.3s-0.6,0.1-0.8,0.3c-0.2,0.2-0.3,0.5-0.3,0.8s0.1,0.6,0.3,0.8c0.2,0.2,0.5,0.3,0.8,0.3
			s0.6-0.1,0.8-0.3c0.2-0.2,0.3-0.5,0.3-0.8S32.7,68,32.5,67.8z"/>
	</g>
</g>
<g>
	<g>
		<path fill="#F7CE78" d="M48.4,49.2c-0.2-0.2-0.5-0.3-0.8-0.3S47,49,46.7,49.2c-0.2,0.2-0.3,0.5-0.3,0.8s0.1,0.6,0.3,0.8s0.5,0.3,0.8,0.3
			s0.6-0.1,0.8-0.3s0.3-0.5,0.3-0.8S48.6,49.4,48.4,49.2z"/>
	</g>
</g>
<g>
	<g>
		<path fill="#F7CE78" d="M32.9,33.1c-5.7,0-10.4,4.6-10.4,10.4c0,3,1.3,5.7,3.3,7.5l0.1,0.1c1.8,1.7,4.3,2.7,7,2.7s5.2-1.1,7-2.7L40,51
			c2-1.9,3.3-4.6,3.3-7.5C43.3,37.8,38.7,33.1,32.9,33.1z M32.9,51.6c-1.8,0-3.6-0.6-4.9-1.6c1-1.7,2.9-2.9,4.9-2.9s4,1.1,4.9,2.9
			C36.5,51.1,34.8,51.6,32.9,51.6z M31.2,43.1v-0.8c0-1,0.8-1.8,1.8-1.8s1.8,0.8,1.8,1.8v0.8c0,1-0.8,1.8-1.8,1.8
			S31.2,44.1,31.2,43.1z M39.5,48.4c-0.9-1.3-2-2.2-3.4-2.8c0.6-0.7,0.9-1.5,0.9-2.5v-0.8c0-2.2-1.8-4.1-4.1-4.1s-4.1,1.8-4.1,4.1
			v0.8c0,1,0.3,1.8,0.9,2.5c-1.4,0.6-2.5,1.5-3.4,2.8c-1-1.4-1.5-3-1.5-4.8c0-4.5,3.7-8.1,8.1-8.1s8.1,3.7,8.1,8.1
			C41.1,45.4,40.5,47,39.5,48.4z"/>
	</g>
</g>
<path fill="#F7CE78" d="M68,24c-6.6,0-12-5.4-12-12S61.4,0,68,0s12,5.4,12,12S74.6,24,68,24z M68,2c-5.5,0-10,4.5-10,10s4.5,10,10,10s10-4.5,10-10
	S73.5,2,68,2z"/>
<g>
	<path fill="#F7CE78" d="M65.9,16.7c-0.6-0.3-1-0.6-1.3-1s-0.4-0.8-0.5-1.2c0-0.1,0-0.2,0.1-0.2c0.1-0.1,0.1-0.1,0.2-0.1h1.3c0.2,0,0.3,0.1,0.4,0.3
		c0.2,0.7,0.8,1,1.8,1c0.6,0,1-0.1,1.3-0.4s0.5-0.6,0.5-1.1s-0.1-0.8-0.4-1.1c-0.3-0.2-0.7-0.3-1.3-0.3h-1.4c-0.1,0-0.2,0-0.2-0.1
		c-0.1-0.1-0.1-0.1-0.1-0.2v-0.6c0-0.2,0.1-0.3,0.2-0.4L69,8.8h-4c-0.1,0-0.2,0-0.3-0.1c-0.1-0.1-0.1-0.1-0.1-0.2v-1
		c0-0.1,0-0.2,0.1-0.3c0.1-0.1,0.1-0.1,0.3-0.1h6c0.1,0,0.2,0,0.3,0.1c0.1,0.1,0.1,0.1,0.1,0.3v0.9c0,0.2-0.1,0.3-0.2,0.4l-2.4,2.5
		H69c0.9,0.1,1.6,0.3,2.1,0.8s0.8,1.1,0.8,2c0,0.6-0.2,1.2-0.5,1.6c-0.3,0.5-0.8,0.8-1.4,1.1c-0.6,0.2-1.2,0.4-2,0.4
		C67.2,17.1,66.5,17,65.9,16.7z"/>
</g>
</svg>
