<?xml version="1.0" encoding="utf-8"?>
<!-- Generator: Adobe Illustrator 23.0.0, SVG Export Plug-In . SVG Version: 6.00 Build 0)  -->
<svg version="1.1" id="Capa_1" xmlns="http://www.w3.org/2000/svg" xmlns:xlink="http://www.w3.org/1999/xlink" x="0px" y="0px"
	 width="80px" height="80px" viewBox="0 0 80 80" enable-background="new 0 0 80 80" xml:space="preserve">
<g>
	<g>
		<path fill="#F7CE78" d="M49,32.8c0.6,0,1.2-0.5,1.2-1.2v-7.7c0-1.8-1.5-3.4-3.4-3.4H3.5c-1.8,0-3.4,1.5-3.4,3.4v52.7c0,1.8,1.5,3.4,3.4,3.4h43.3
			c1.8,0,3.4-1.5,3.4-3.4V64.1c0-0.6-0.5-1.2-1.2-1.2s-1.2,0.5-1.2,1.2v12.4c0,0.6-0.5,1.2-1.2,1.2H3.5c-0.6,0-1.2-0.5-1.2-1.2V23.9
			c0-0.6,0.5-1.2,1.2-1.2h43.3c0.6,0,1.2,0.5,1.2,1.2v7.7C47.8,32.3,48.4,32.8,49,32.8z"/>
	</g>
</g>
<g>
	<g>
		<path fill="#F7CE78" d="M25.1,30.7c-5.7,0-10.4,4.6-10.4,10.4c0,3,1.3,5.7,3.3,7.5l0.1,0.1c1.8,1.7,4.3,2.7,7,2.7s5.2-1.1,7-2.7l0.1-0.1
			c2-1.9,3.3-4.6,3.3-7.5C35.5,35.5,30.9,30.7,25.1,30.7z M25.1,49.3c-1.8,0-3.6-0.6-4.9-1.6c1-1.7,2.9-2.9,4.9-2.9s4,1.1,4.9,2.9
			C28.7,48.7,27,49.3,25.1,49.3z M23.4,40.7v-0.8c0-1,0.8-1.8,1.8-1.8c1.1,0,1.8,0.8,1.8,1.8v0.8c0,1-0.8,1.8-1.8,1.8
			C24.2,42.5,23.4,41.7,23.4,40.7z M31.7,46c-0.9-1.3-2-2.2-3.4-2.8c0.6-0.7,0.9-1.5,0.9-2.5v-0.8c0-2.2-1.8-4.1-4.1-4.1
			S21,37.6,21,39.9v0.8c0,1,0.3,1.8,0.9,2.5c-1.4,0.6-2.5,1.5-3.4,2.8c-1-1.4-1.5-3-1.5-4.8c0-4.5,3.7-8.1,8.1-8.1s8.1,3.7,8.1,8.1
			C33.3,43,32.7,44.6,31.7,46z"/>
	</g>
</g>
<g>
	<g>
		<path fill="#F7CE78" d="M32.3,67.4h-6.1c-0.6,0-1.2,0.5-1.2,1.2s0.5,1.2,1.2,1.2h6.1c0.6,0,1.2-0.5,1.2-1.2S32.9,67.4,32.3,67.4z"/>
	</g>
</g>
<g>
	<g>
		<path fill="#F7CE78" d="M32.3,61.5H12c-0.6,0-1.2,0.5-1.2,1.2s0.5,1.2,1.2,1.2h20.2c0.6,0,1.2-0.5,1.2-1.2C33.3,62,32.9,61.5,32.3,61.5z"/>
	</g>
</g>
<g>
	<g>
		<path fill="#F7CE78" d="M8.1,55.5c-0.2-0.2-0.5-0.3-0.8-0.3s-0.6,0.1-0.8,0.3c-0.2,0.2-0.3,0.5-0.3,0.8s0.1,0.6,0.3,0.8c0.2,0.2,0.5,0.3,0.8,0.3
			s0.6-0.1,0.8-0.3c0.2-0.2,0.3-0.5,0.3-0.8S8.3,55.7,8.1,55.5z"/>
	</g>
</g>
<g>
	<g>
		<path fill="#F7CE78" d="M8.1,61.8c-0.2-0.2-0.5-0.3-0.8-0.3s-0.6,0.1-0.8,0.3c-0.2,0.2-0.3,0.5-0.3,0.8s0.1,0.6,0.3,0.8c0.1,0.3,0.4,0.4,0.7,0.4
			s0.6-0.1,0.8-0.3c0.2-0.2,0.3-0.5,0.3-0.8S8.3,62.1,8.1,61.8z"/>
	</g>
</g>
<g>
	<g>
		<path fill="#F7CE78" d="M32.3,55.2H12c-0.6,0-1.2,0.5-1.2,1.2s0.5,1.2,1.2,1.2h20.2c0.6,0,1.2-0.5,1.2-1.2S32.9,55.2,32.3,55.2z"/>
	</g>
</g>
<g>
	<g>
		<path fill="#F7CE78" d="M57.7,31.7c-1.1-0.7-2.4-0.8-3.6-0.5c-1.3,0.3-2.2,1.2-2.9,2.2L37,58c-0.1,0.1-0.1,0.3-0.1,0.5l-1,9
			c-0.1,0.5,0.2,0.9,0.6,1.1c0.2,0.1,0.4,0.2,0.6,0.2c0.2,0,0.5-0.1,0.7-0.2l7.2-5.3c0.1-0.1,0.2-0.2,0.3-0.4l14.2-24.6
			C60.8,35.8,60,33,57.7,31.7z M38.4,65.2l0.5-4.7l3.3,1.9L38.4,65.2z M43.8,60.8l-4.3-2.5l11.4-19.8l4.3,2.5L43.8,60.8z M57.5,37
			l-1.2,1.9L52,36.4l1.2-1.9c0.3-0.6,0.9-1,1.5-1.2c0.7-0.2,1.4-0.1,1.9,0.3c0.6,0.3,1,0.9,1.2,1.5C57.9,35.8,57.9,36.4,57.5,37z"/>
	</g>
</g>
<path fill="#F7CE78" d="M68.1,24.1c-6.6,0-12-5.4-12-12s5.4-12,12-12s12,5.4,12,12S74.7,24.1,68.1,24.1z M68.1,2.1c-5.5,0-10,4.5-10,10
	s4.5,10,10,10s10-4.5,10-10S73.6,2.1,68.1,2.1z"/>
<g>
	<path fill="#F7CE78" d="M64.5,17c-0.1-0.1-0.1-0.1-0.1-0.2V16c0-0.3,0.1-0.5,0.4-0.7l2.2-2.2c0.7-0.5,1.2-0.9,1.5-1.3c0.4-0.3,0.6-0.6,0.8-0.9
		c0.2-0.3,0.3-0.6,0.3-0.8c0-0.4-0.1-0.8-0.3-1s-0.6-0.4-1.1-0.4s-0.8,0.1-1.1,0.4c-0.3,0.3-0.4,0.6-0.5,1.1c0,0.1-0.1,0.2-0.2,0.2
		s-0.2,0.1-0.3,0.1h-1.3c-0.1,0-0.2,0-0.2-0.1c-0.1-0.1-0.1-0.1-0.1-0.2c0-0.6,0.2-1.1,0.5-1.5c0.3-0.5,0.7-0.9,1.2-1.2
		s1.2-0.4,1.9-0.4c0.7,0,1.4,0.1,1.9,0.4s0.9,0.6,1.2,1.1c0.3,0.4,0.4,1,0.4,1.5c0,0.6-0.2,1.2-0.5,1.7c-0.4,0.5-0.9,1.1-1.6,1.6
		l-1.9,2h4c0.1,0,0.2,0,0.3,0.1c0.1,0.1,0.1,0.1,0.1,0.3v1c0,0.1,0,0.2-0.1,0.2s-0.1,0.1-0.3,0.1h-6.7C64.6,17.1,64.6,17,64.5,17z"
		/>
</g>
</svg>
