<?xml version="1.0" encoding="utf-8"?>
<!-- Generator: Adobe Illustrator 23.0.0, SVG Export Plug-In . SVG Version: 6.00 Build 0)  -->
<svg version="1.1" id="Слой_1" xmlns="http://www.w3.org/2000/svg" xmlns:xlink="http://www.w3.org/1999/xlink" x="0px" y="0px"
	 width="80px" height="80px" viewBox="0 0 80 80" enable-background="new 0 0 80 80" xml:space="preserve">
<g id="surface1">
	<path fill="#F7CE78" d="M59,72h-2V32c0-2.8-2.2-5-5-5H8c-2.8,0-5,2.2-5,5v40H1c-0.6,0-1,0.4-1,1v3c0,2.2,1.8,4,4,4h52c2.2,0,4-1.8,4-4v-3
		C60,72.4,59.6,72,59,72z M5,32c0-1.7,1.3-3,3-3h44c1.7,0,3,1.3,3,3v40h-2V34c0-1.7-1.3-3-3-3H10c-1.7,0-3,1.3-3,3v38H5V32z M51,34
		v38H36.1c-1.1,0-2,0.6-2.5,1.6c-0.1,0.3-0.4,0.4-0.7,0.4h-5.8c-0.3,0-0.6-0.2-0.7-0.4c-0.5-1-1.4-1.6-2.5-1.6H9V34c0-0.6,0.4-1,1-1
		h40C50.6,33,51,33.4,51,34z M58,76c0,1.1-0.9,2-2,2H4c-1.1,0-2-0.9-2-2v-2h21.9c0.3,0,0.6,0.2,0.7,0.4c0.5,1,1.4,1.6,2.5,1.6h5.8
		c1.1,0,2-0.6,2.5-1.6c0.1-0.3,0.4-0.4,0.7-0.4H58V76z"/>
	<path fill="#F7CE78" d="M46,56H14c-0.6,0-1,0.4-1,1v8c0,0.6,0.4,1,1,1h32c0.6,0,1-0.4,1-1v-8C47,56.4,46.6,56,46,56z M45,64H15v-6h30V64z"/>
	<path fill="#F7CE78" d="M17,60h2v2h-2V60z"/>
	<path fill="#F7CE78" d="M21,60h2v2h-2V60z"/>
	<path fill="#F7CE78" d="M25,60h2v2h-2V60z"/>
	<path fill="#F7CE78" d="M29,60h2v2h-2V60z"/>
	<path fill="#F7CE78" d="M46,42.9H14c-0.6,0-1,0.4-1,1v8c0,0.6,0.4,1,1,1h32c0.6,0,1-0.4,1-1v-8C47,43.3,46.6,42.9,46,42.9z M45,50.9H15v-6h30V50.9
		z"/>
	<path fill="#F7CE78" d="M17,46.9h2v2h-2V46.9z"/>
	<path fill="#F7CE78" d="M21,46.9h2v2h-2V46.9z"/>
	<path fill="#F7CE78" d="M25,46.9h2v2h-2V46.9z"/>
	<path fill="#F7CE78" d="M29,46.9h2v2h-2V46.9z"/>
	<path fill="#F7CE78" d="M11,35h6v2h-6V35z"/>
	<path fill="#F7CE78" d="M19,35h2v2h-2V35z"/>
</g>
<path fill="#F7CE78" d="M68,24c-6.6,0-12-5.4-12-12S61.4,0,68,0s12,5.4,12,12S74.6,24,68,24z M68,2c-5.5,0-10,4.5-10,10s4.5,10,10,10s10-4.5,10-10
	S73.5,2,68,2z"/>
<g>
	<path fill="#F7CE78" d="M68.1,17.1c0-0.1-0.1-0.2-0.1-0.3V9.6l-2.1,1.6c-0.1,0-0.1,0.1-0.2,0.1s-0.2,0-0.3-0.1l-0.6-0.8c0-0.1-0.1-0.1-0.1-0.2
		c0-0.1,0.1-0.2,0.2-0.3L68,7.5c0.1-0.1,0.2-0.1,0.3-0.1h1.3c0.1,0,0.2,0,0.2,0.1C70,7.5,70,7.6,70,7.7v9.1c0,0.1,0,0.2-0.1,0.2
		c-0.1,0.1-0.1,0.1-0.2,0.1h-1.3C68.3,17.2,68.2,17.1,68.1,17.1z"/>
</g>
</svg>
