<?xml version="1.0" encoding="utf-8"?>
<!-- Generator: Adobe Illustrator 23.0.0, SVG Export Plug-In . SVG Version: 6.00 Build 0)  -->
<svg version="1.1" id="Слой_1" xmlns="http://www.w3.org/2000/svg" xmlns:xlink="http://www.w3.org/1999/xlink" x="0px" y="0px"
	 width="20px" height="20px" viewBox="0 0 20 20" enable-background="new 0 0 20 20" xml:space="preserve">
<path fill="#2f383d" d="M3.1,3.9h5.2v1.3H3.1V3.9z"/>
<path fill="#2f383d" d="M1.9,16.5h7.5C8.6,15.8,8,15,7.8,14H2.4c-0.3,0-0.6-0.3-0.6-0.6s0.3-0.6,0.6-0.6h5.2c0-0.4,0.1-0.9,0.2-1.3H2.4
	c-0.3,0-0.6-0.3-0.6-0.6s0.3-0.5,0.6-0.5h5.8c0.6-1.2,1.7-2,3.1-2.4V0.6c0-0.3-0.2-0.6-0.6-0.6H0.6C0.3,0-0.1,0.3-0.1,0.6v14
	C-0.1,15.6,0.8,16.5,1.9,16.5z M1.9,3.2c0-0.3,0.3-0.6,0.6-0.6h6.4c0.3,0,0.6,0.3,0.6,0.6v2.5c0,0.3-0.3,0.6-0.6,0.6H2.4
	c-0.3,0-0.5-0.2-0.5-0.5C1.9,5.8,1.9,3.2,1.9,3.2z M2.4,7.7h3.9C6.6,7.7,7,8,7,8.3S6.8,8.9,6.4,8.9h-4c-0.3,0-0.5-0.3-0.5-0.6
	C1.9,8,2.1,7.7,2.4,7.7z"/>
<path fill="#2f383d" d="M17.5,15.8c-0.2-0.2-0.6-0.2-0.9,0L15.8,15c0.4-0.6,0.8-1.4,0.8-2.2c0-2-1.7-3.8-3.8-3.8S9,10.8,9,12.8s1.7,3.8,3.8,3.8
	c0.9,0,1.6-0.2,2.2-0.8l0.9,0.9l0,0c-0.2,0.2-0.2,0.6,0,0.9l2,2c0.5,0.5,1.3,0.5,1.8,0s0.5-1.3,0-1.8L17.5,15.8z"/>
<path fill="#2f383d" d="M15.1,8.4V5.8c0-0.3-0.3-0.6-0.6-0.6h-1.9v2.5C13.6,7.7,14.4,8,15.1,8.4z"/>
</svg>
