<?xml version="1.0" encoding="utf-8"?>
<!-- Generator: Adobe Illustrator 23.0.0, SVG Export Plug-In . SVG Version: 6.00 Build 0)  -->
<svg version="1.1" id="Capa_1" xmlns="http://www.w3.org/2000/svg" xmlns:xlink="http://www.w3.org/1999/xlink" x="0px" y="0px"
	 width="18px" height="18px" viewBox="0 0 18 18" enable-background="new 0 0 18 18" xml:space="preserve">
<g>
	<g>
		<path fill="#2f383d" d="M17.4,4.5h-3.2V0.6c0-0.4-0.3-0.6-0.6-0.6h-13C0.3,0,0,0.3,0,0.6v14.8C0,16.8,1.2,18,2.6,18h12.9c1.4,0,2.6-1.2,2.6-2.6
			V5.1C18,4.8,17.7,4.5,17.4,4.5z M5.1,3.2H9c0.4,0,0.6,0.3,0.6,0.6S9.4,4.5,9,4.5H5.1c-0.4,0-0.6-0.3-0.6-0.6S4.8,3.2,5.1,3.2z
			 M10.9,15.4H3.2c-0.4,0-0.6-0.3-0.6-0.6c0-0.4,0.3-0.6,0.6-0.6h7.7c0.4,0,0.6,0.3,0.6,0.6C11.6,15.1,11.3,15.4,10.9,15.4z
			 M10.9,12.9H3.2c-0.4,0-0.6-0.3-0.6-0.6c0-0.4,0.3-0.6,0.6-0.6h7.7c0.4,0,0.6,0.3,0.6,0.6C11.6,12.6,11.3,12.9,10.9,12.9z
			 M10.9,10.3H3.2c-0.4,0-0.6-0.3-0.6-0.6S2.9,9,3.2,9h7.7c0.4,0,0.6,0.3,0.6,0.6C11.6,10,11.3,10.3,10.9,10.3z M10.9,7.7H3.2
			c-0.4,0-0.6-0.3-0.6-0.6s0.3-0.6,0.6-0.6h7.7c0.4,0,0.6,0.3,0.6,0.6C11.6,7.4,11.3,7.7,10.9,7.7z M16.7,15.4
			c0,0.7-0.6,1.3-1.3,1.3s-1.3-0.6-1.3-1.3V5.8h2.6V15.4L16.7,15.4z"/>
	</g>
</g>
</svg>
