<?xml version="1.0" encoding="utf-8"?>
<!-- Generator: Adobe Illustrator 23.0.0, SVG Export Plug-In . SVG Version: 6.00 Build 0)  -->
<svg version="1.1" id="Capa_1" xmlns="http://www.w3.org/2000/svg" xmlns:xlink="http://www.w3.org/1999/xlink" x="0px" y="0px"
	 width="12px" height="28px" viewBox="0 0 28 28" enable-background="new 0 0 28 28" xml:space="preserve">
<g>
	<g>
		<path fill="#fff" d="M12.6,19.7c-2.2-0.2-4.1-0.8-5.8-2.1c-0.2-0.2-0.4-0.3-0.6-0.5c-0.7-0.7-0.8-1.5-0.2-2.3
			c0.5-0.7,1.3-0.9,2.2-0.5c0.2,0.1,0.3,0.2,0.5,0.3c3.1,2.1,7.4,2.2,10.5,0.1c0.3-0.2,0.6-0.4,1-0.5c0.7-0.2,1.4,0.1,1.8,0.7
			c0.5,0.7,0.5,1.5-0.1,2.1c-0.9,0.9-1.9,1.5-3.1,2c-1.1,0.4-2.3,0.6-3.5,0.8c0.2,0.2,0.3,0.3,0.4,0.4c1.6,1.6,3.2,3.2,4.8,4.9
			c0.5,0.6,0.7,1.2,0.4,1.9c-0.3,0.7-1.1,1.2-1.8,1.1c-0.5,0-0.8-0.3-1.1-0.6c-1.2-1.2-2.5-2.4-3.6-3.7c-0.3-0.4-0.5-0.3-0.8,0
			c-1.2,1.3-2.5,2.5-3.7,3.7C9.3,28,8.6,28.1,8,27.8c-0.7-0.3-1.1-1-1.1-1.8c0-0.5,0.3-0.8,0.6-1.2c1.6-1.6,3.2-3.2,4.8-4.8
			C12.4,20,12.5,19.9,12.6,19.7z"/>
		<path fill="#fff" d="M13.9,14.2c-3.9,0-7-3.2-7-7.1C6.9,3.1,10.1,0,14,0c3.9,0,7.1,3.2,7,7.2C21.1,11,17.9,14.2,13.9,14.2z
			 M17.5,7.1c0-1.9-1.5-3.5-3.5-3.5c-1.9,0-3.5,1.6-3.5,3.5c0,1.9,1.6,3.4,3.5,3.4C15.9,10.5,17.5,9,17.5,7.1z"/>
	</g>
</g>
</svg>
