<?xml version="1.0" encoding="utf-8"?>
<!-- Generator: Adobe Illustrator 23.0.0, SVG Export Plug-In . SVG Version: 6.00 Build 0)  -->
<svg version="1.1" id="Capa_1" xmlns="http://www.w3.org/2000/svg" xmlns:xlink="http://www.w3.org/1999/xlink" x="0px" y="0px"
	 width="20px" height="20px" viewBox="0 0 20 20" enable-background="new 0 0 20 20" xml:space="preserve">
<g>
	<path fill="#2f383d" d="M5.8,10.2c0-0.5-0.4-0.9-1-0.9c-0.3,0-0.5,0-0.5,0.1v1.7c0.1,0,0.3,0,0.4,0C5.4,11.2,5.8,10.8,5.8,10.2z"/>
	<path fill="#2f383d" d="M9.9,9.4c-0.3,0-0.5,0-0.6,0.1v3.8c0.1,0,0.3,0,0.5,0c1.2,0,2-0.7,2-2.1C11.8,10,11,9.4,9.9,9.4z"/>
	<path fill="#2f383d" d="M17.7,7.2h-0.5V4.8l0,0c0-0.1,0-0.2-0.1-0.3l-3.9-4.4l0,0c0,0,0,0-0.1-0.1l0,0H13l0,0h-0.1H3.5C3.1,0,2.7,0.4,2.7,0.8v6.4
		H2.3c-0.6,0-1.1,0.5-1.1,1.1v5.8c0,0.6,0.5,1.1,1.1,1.1h0.5v4c0,0.4,0.4,0.8,0.8,0.8h12.9c0.4,0,0.8-0.4,0.8-0.8v-4h0.5
		c0.6,0,1.1-0.5,1.1-1.1V8.3C18.9,7.7,18.4,7.2,17.7,7.2z M3.5,0.8h9.1v4c0,0.2,0.2,0.4,0.4,0.4h3.5v2h-13V0.8z M13.2,11.2
		c0,1.1-0.4,1.9-1,2.4c-0.6,0.5-1.6,0.8-2.7,0.8c-0.7,0-1.2,0-1.5-0.1V8.5c0.5-0.1,1.1-0.1,1.8-0.1c1.1,0,1.8,0.2,2.4,0.6
		C12.8,9.5,13.2,10.2,13.2,11.2z M2.9,14.3V8.5c0.4-0.1,1-0.1,1.8-0.1s1.4,0.2,1.8,0.5s0.6,0.8,0.6,1.4c0,0.6-0.2,1.1-0.5,1.4
		c-0.5,0.4-1.1,0.6-1.9,0.6c-0.2,0-0.3,0-0.5,0v2.1L2.9,14.3L2.9,14.3z M16.5,19h-13v-3.8h12.9L16.5,19L16.5,19z M17.6,9.5h-2.3v1.3
		h2.1v1.1h-2.1v2.4H14V8.4h3.6V9.5z"/>
</g>
</svg>
