<?xml version="1.0" encoding="utf-8"?>
<!-- Generator: Adobe Illustrator 23.0.0, SVG Export Plug-In . SVG Version: 6.00 Build 0)  -->
<svg version="1.1" id="Capa_1" xmlns="http://www.w3.org/2000/svg" xmlns:xlink="http://www.w3.org/1999/xlink" x="0px" y="0px"
	 width="18px" height="18px" viewBox="0 0 18 18" enable-background="new 0 0 18 18" xml:space="preserve">
<g id="Edit">
	<path ill="#2f383d" fill-rule="evenodd" clip-rule="evenodd" d="M10.8,3.8c-0.5-0.5-1.2-0.5-1.7,0L8.7,4.2l-6,6l0,0l-0.2,0.2c0,0-0.6,0.6-2,5v0.1
		c0,0.1,0,0.2-0.1,0.2c0,0.1,0,0.1-0.1,0.2c0,0.1,0,0.1-0.1,0.2c0,0.1-0.1,0.3-0.1,0.4C0,16.8-0.2,17.6,0,17.8c0.3,0.3,1,0,1.3-0.1
		c0.1,0,0.3-0.1,0.4-0.1s0.1,0,0.2-0.1c0.1,0,0.1,0,0.2-0.1c0.1,0,0.2-0.1,0.3-0.1c0,0,0,0,0.1,0c4.2-1.3,4.9-1.9,5-2l0,0l0,0
		l0.2-0.2l0,0l6-6l0,0l0.4-0.4c0.5-0.5,0.5-1.2,0-1.7L10.8,3.8z M6.9,14.7L6.9,14.7L6.9,14.7C6.9,14.7,6.9,14.8,6.9,14.7
		C6.9,14.8,6.9,14.8,6.9,14.7c-0.3,0.2-0.8,0.5-2.3,1c-0.2,0.1-0.3,0.1-0.5,0.2l-2-2c0.1-0.2,0.1-0.4,0.2-0.5c0.5-1.4,0.8-2,0.9-2.2
		l0,0l0,0l0,0l0,0l0.1-0.1L6.9,14.7L6.9,14.7z M17.6,3.8l-3.4-3.4c-0.5-0.5-1.2-0.5-1.7,0l-0.9,0.9c-0.5,0.5-0.5,1.2,0,1.7L15,6.4
		c0.5,0.5,1.2,0.5,1.7,0l0.9-0.9C18.1,5,18.1,4.2,17.6,3.8z"/>
</g>
</svg>
