<?xml version="1.0" encoding="utf-8"?>
<!-- Generator: Adobe Illustrator 23.0.0, SVG Export Plug-In . SVG Version: 6.00 Build 0)  -->
<svg version="1.1" id="Capa_1" xmlns="http://www.w3.org/2000/svg" xmlns:xlink="http://www.w3.org/1999/xlink" x="0px" y="0px"
	 width="24px" height="24px" viewBox="0 0 24 24" enable-background="new 0 0 24 24" xml:space="preserve">
<path fill="#2f383d" d="M23.3,22.8c-1.2-0.6-2-1.8-2.5-2.8l0.1-0.1c4.2-4.7,4-11.9-0.5-16.4c-4.7-4.7-12.3-4.7-17,0c-4.7,4.7-4.7,12.3,0,17
	c3.9,3.9,10,4.6,14.6,1.9l0,0c1.8,1.4,3.7,1.6,5.1,1.4C23.6,23.7,23.7,23,23.3,22.8z M13.4,19c0,0.1-0.1,0.3-0.1,0.4
	c-0.1,0.1-0.2,0.1-0.4,0.1h-2.1c-0.1,0-0.3,0-0.4-0.1c-0.1-0.1-0.2-0.2-0.2-0.4v-1.9c0-0.1,0.1-0.3,0.2-0.4c0.1-0.1,0.2-0.1,0.4-0.1
	h2.1c0.1,0,0.3,0.1,0.4,0.1c0.1,0.1,0.2,0.2,0.2,0.4V19z M16.6,10c-0.3,0.5-0.8,1.1-1.4,1.8c-0.5,0.5-0.8,0.9-1.1,1.3
	c-0.3,0.4-0.4,0.7-0.5,1.1c-0.1,0.4-0.1,0.6-0.1,0.7c-0.1,0.2-0.2,0.3-0.2,0.4c-0.1,0.1-0.2,0.1-0.4,0.1h-2.1c-0.1,0-0.2,0-0.3-0.1
	c-0.1-0.1-0.1-0.2-0.1-0.3c0-0.3,0-0.5,0-0.7c0.1-0.7,0.3-1.3,0.6-1.8c0.4-0.5,0.9-1.1,1.5-1.7c0.5-0.5,0.8-0.9,1.1-1.2
	c0.2-0.3,0.4-0.6,0.4-1c0.1-0.6-0.1-1.1-0.6-1.4c-0.4-0.3-1-0.5-1.6-0.5c-1.4,0-2.2,0.7-2.5,2.1C9.2,9.2,9,9.3,8.7,9.3H6.8
	c-0.1,0-0.3,0-0.4-0.1C6.4,9.1,6.3,9,6.3,8.8C6.4,8,6.6,7.3,7,6.6C7.5,5.9,8.1,5.4,9,4.9c0.8-0.4,1.8-0.6,3-0.6
	c1.2,0,2.2,0.2,2.9,0.6c0.8,0.4,1.3,0.9,1.7,1.4c0.3,0.6,0.5,1.2,0.5,1.8C17.1,8.9,16.9,9.5,16.6,10z"/>
</svg>
