<?xml version="1.0" encoding="utf-8"?>
<!-- Generator: Adobe Illustrator 23.0.0, SVG Export Plug-In . SVG Version: 6.00 Build 0)  -->
<svg version="1.1" id="Layer_1" xmlns="http://www.w3.org/2000/svg" xmlns:xlink="http://www.w3.org/1999/xlink" x="0px" y="0px"
	 width="60px" height="60px" viewBox="0 0 60 60" enable-background="new 0 0 60 60" xml:space="preserve">
<path fill="#2f383d" d="M16.1,2.5c0.2,1.4,0.8,7,0,10.3c-0.1,0.5,0.2,1.1,0.7,1.2c0.1,0,0.2,0,0.2,0c0.4,0,0.9-0.3,1-0.8
	c0.5-2,0.5-4.8,0.4-7C20,9.8,20,13,20,13c0,0.6,0.4,1,1,1l0,0c0.6,0,1-0.4,1-1c0-0.2,0-4-2.1-8.2c4,3.2,4.1,8,4.1,8.2
	c0,0.6,0.4,1,1,1s1-0.4,1-1c0-0.1-0.1-8.6-8.4-11.8l-0.9-0.9c-0.4-0.4-1-0.4-1.4,0s-0.4,1,0,1.4L16.1,2.5z"/>
<path fill="#2f383d" d="M51,10h5v3c0,0.6,0.4,1,1,1s1-0.4,1-1v-3c0-1.1-0.9-2-2-2h-5c-0.6,0-1,0.4-1,1S50.4,10,51,10z"/>
<path fill="#2f383d" d="M29,14c0.6,0,1-0.4,1-1V6h12v7c0,0.6,0.4,1,1,1s1-0.4,1-1V6h2v7c0,0.6,0.4,1,1,1s1-0.4,1-1V6
	c0-1.1-0.9-2-2-2H30c-1.1,0-2,0.9-2,2v7C28,13.6,28.4,14,29,14z"/>
<path fill="#2f383d" d="M48,52c-2.2,0-4,1.8-4,4s1.8,4,4,4s4-1.8,4-4S50.2,52,48,52z M48,58c-1.1,0-2-0.9-2-2s0.9-2,2-2s2,0.9,2,2
	S49.1,58,48,58z"/>
<path fill="#2f383d" d="M51,48H23c-1.5,0-2.6,2-2.9,2.6c-0.2,0.5,0,1.1,0.4,1.3C20.7,52,20.8,52,21,52c0.4,0,0.7-0.2,0.9-0.6
	c0.3-0.7,0.9-1.4,1.1-1.4h28c0.6,0,1-0.4,1-1S51.6,48,51,48z"/>
<path fill="#2f383d" d="M59.8,16.4C59.6,16.1,59.3,16,59,16H14c-0.6,0-1,0.4-1,1s0.4,1,1,1h43.8c-1.4,7.9-4,21.5-4.7,23.7
	C52.3,44,50.1,44,50,44H19c-2,0-2.8-1-3-1.4L10,7.8c0-0.1,0-0.1,0-0.1C9.8,7.3,8.6,4,6,4H3C1.8,4,0,4.8,0,7s1.8,3,3,3h2
	c0.6,0,1-0.4,1-1S5.6,8,5,8H3C2.5,8,2,7.8,2,7s0.5-1,1-1h3c1,0,1.8,1.6,2,2.3l6,34.9c0,0.1,0,0.2,0.1,0.3s1.3,2.6,4.9,2.6h31
	c1.3,0,4-0.8,4.9-3.7c1-3,4.9-24.2,5-25.1C60,16.9,60,16.6,59.8,16.4z"/>
<path fill="#2f383d" d="M18,52c-2.2,0-4,1.8-4,4s1.8,4,4,4s4-1.8,4-4S20.2,52,18,52z M18,58c-1.1,0-2-0.9-2-2s0.9-2,2-2s2,0.9,2,2
	S19.1,58,18,58z"/>
<path fill="#2f383d" d="M14.7,27c0,0.6,0.4,1,1,1h6.9l0.6,6H17c-0.6,0-1,0.4-1,1s0.4,1,1,1h6.5l0.5,5.1c0.1,0.5,0.5,0.9,1,0.9h0.1
	c0.5-0.1,1-0.5,0.9-1.1L25.5,36H34v5c0,0.6,0.4,1,1,1s1-0.4,1-1v-5h8.5L44,40.9c-0.1,0.5,0.3,1,0.9,1.1H45c0.5,0,0.9-0.4,1-0.9
	l0.5-5.1h5c0.6,0,1-0.4,1-1s-0.4-1-1-1h-4.8l0.6-6H53c0.6,0,1-0.4,1-1s-0.4-1-1-1h-5.5l0.5-4.9c0.1-0.5-0.3-1-0.9-1.1
	c-0.6-0.1-1,0.3-1.1,0.9L45.5,26H36v-5c0-0.6-0.4-1-1-1s-1,0.4-1,1v5h-9.5L24,20.9c-0.1-0.5-0.5-1-1.1-0.9c-0.5,0.1-1,0.5-0.9,1.1
	l0.5,4.9h-6.7C15.2,26,14.7,26.4,14.7,27z M36,28h9.3l-0.6,6H36V28L36,28z M34,28v6h-8.7l-0.6-6H34L34,28z"/>
</svg>
