<?xml version="1.0" encoding="utf-8"?>
<!-- Generator: Adobe Illustrator 23.0.0, SVG Export Plug-In . SVG Version: 6.00 Build 0)  -->
<svg version="1.1" id="Capa_1" xmlns="http://www.w3.org/2000/svg" xmlns:xlink="http://www.w3.org/1999/xlink" x="0px" y="0px"
	 width="20px" height="20px" viewBox="0 0 20 20" enable-background="new 0 0 20 20" xml:space="preserve">
<g>
	<path fill="#f7ce78" d="M14.6,0H5.4c-1.1,0-2,0.9-2,2v16c0,1.1,0.9,2,2,2h9.3c1.1,0,2-0.9,2-2V2C16.6,0.9,15.7,0,14.6,0z M7.4,1h5.3v0.7H7.4V1z
		 M10,18.7c-0.7,0-1.3-0.6-1.3-1.3S9.3,16,10,16s1.3,0.6,1.3,1.3S10.7,18.7,10,18.7z M15.3,14.7H4.7V2.6h10.6V14.7z"/>
</g>
</svg>
