<?xml version="1.0" encoding="utf-8"?>
<!-- Generator: Adobe Illustrator 23.0.0, SVG Export Plug-In . SVG Version: 6.00 Build 0)  -->
<svg version="1.1" id="Capa_1" xmlns="http://www.w3.org/2000/svg" xmlns:xlink="http://www.w3.org/1999/xlink" x="0px" y="0px"
	 width="18px" height="18px" viewBox="0 0 18 18" enable-background="new 0 0 18 18" xml:space="preserve">
<g>
	<g>
		<g>
			<path fill="#2f383d" d="M17.9,9.2c-0.2-0.3-0.6-0.5-1-0.3l-2.5,1.4l-0.6,0.4v3.4l0.6,0.3l0,0l2.4,1.4c0.1,0.1,0.3,0.1,0.4,0.1
				c0.4,0,0.7-0.3,0.7-0.7v-2.9V9.4C18,9.5,18,9.4,17.9,9.2z"/>
			<path fill="#2f383d" d="M3.5,8.1C5.4,8.1,7,6.6,7,4.7S5.4,1.2,3.5,1.2S0,2.7,0,4.7C0,6.6,1.6,8.1,3.5,8.1z M3.5,3.2c0.8,0,1.4,0.6,1.4,1.4
				S4.3,6,3.5,6S2.1,5.4,2.1,4.7C2,3.9,2.7,3.2,3.5,3.2z"/>
			<path fill="#2f383d" d="M12.3,8.3c-0.6,0.3-1.2,0.5-1.9,0.5c-0.8,0-1.6-0.2-2.2-0.7H5.7C5.1,8.6,4.3,8.8,3.5,8.8c-0.7,0-1.3-0.2-1.9-0.5
				C1.1,8.6,0.8,9.2,0.8,9.8v5.3c0,1,0.8,1.8,1.8,1.8h8.9c1,0,1.8-0.8,1.8-1.8V9.8C13.2,9.2,12.8,8.6,12.3,8.3z"/>
			<path fill="#2f383d" d="M10.4,8.1c1.9,0,3.5-1.6,3.5-3.5s-1.6-3.5-3.5-3.5S7,2.7,7,4.7C7,6.6,8.5,8.1,10.4,8.1z M10.4,3.2c0.8,0,1.4,0.6,1.4,1.4
				S11.2,6,10.4,6S9,5.4,9,4.7C9,3.9,9.6,3.2,10.4,3.2z"/>
		</g>
	</g>
</g>
</svg>
