<?xml version="1.0" encoding="utf-8"?>
<!-- Generator: Adobe Illustrator 23.0.0, SVG Export Plug-In . SVG Version: 6.00 Build 0)  -->
<svg version="1.1" id="Capa_1" xmlns="http://www.w3.org/2000/svg" xmlns:xlink="http://www.w3.org/1999/xlink" x="0px" y="0px"
	 width="60px" height="60px" viewBox="0 0 60 60" enable-background="new 0 0 60 60" xml:space="preserve">
<g>
	<g>
		<path fill="#2f383d" d="M19,15.3h-4.7c-0.6,0-1.1,0.5-1.1,1.1c0,0.6,0.5,1.1,1.1,1.1H19c0.6,0,1.1-0.5,1.1-1.1
			C20.1,15.8,19.6,15.3,19,15.3z"/>
	</g>
</g>
<g>
	<g>
		<path fill="#2f383d" d="M17.7,21.4c0-0.1,0-0.1-0.1-0.2c0-0.1-0.1-0.1-0.1-0.2s-0.1-0.1-0.1-0.2c-0.1-0.1-0.1-0.1-0.2-0.1
			s-0.1-0.1-0.2-0.1s-0.1,0-0.2-0.1c-0.4-0.1-0.7,0-1,0.3c-0.1,0.1-0.1,0.1-0.1,0.2s-0.1,0.1-0.1,0.2s0,0.1-0.1,0.2
			c0,0.1,0,0.1,0,0.2s0,0.1,0,0.2s0,0.1,0.1,0.2c0,0.1,0.1,0.1,0.1,0.2s0.1,0.1,0.1,0.2c0.2,0.2,0.5,0.3,0.8,0.3c0.1,0,0.1,0,0.2,0
			s0.1,0,0.2-0.1c0.1,0,0.1-0.1,0.2-0.1s0.1-0.1,0.2-0.1c0.1-0.1,0.1-0.1,0.1-0.2s0.1-0.1,0.1-0.2s0-0.1,0.1-0.2c0-0.1,0-0.1,0-0.2
			C17.8,21.6,17.8,21.5,17.7,21.4z"/>
	</g>
</g>
<g>
	<g>
		<path fill="#2f383d" d="M53.7,37.9h-9c-0.6,0-1.1,0.5-1.1,1.1v1.2h-3.1l-4.1-2.8c-2.1-1.4-3.9-3.3-5.1-5.5l-2.5-4.3
			c-0.6-1.1-1.7-1.9-3-2.3c-1.2-0.3-2.5-0.2-3.7,0.5c-0.2,0.1-0.3,0.2-0.5,0.3c0-0.7,0-4.9,0-5.3c4-1.7,6.5-5.7,6.5-10.6
			c0-4.1-2.2-7.9-5.8-10c-0.4-0.3-1-0.3-1.5,0c-0.4,0.3-0.7,0.7-0.7,1.3c0,0.1,0,5.7,0,7.5c0,0.1-0.1,0.3-0.3,0.3c0,0,0,0-0.1,0.1
			c-1.1,0.9-2.6,2-3.2,2.3c-0.6-0.3-2.1-1.4-3.2-2.4c0,0,0,0-0.1-0.1C13.1,9.2,13,9,13,8.7c0-1.9,0-7.3,0-7.4c0-0.6-0.3-1.1-0.7-1.3
			c-0.4-0.3-1-0.3-1.5,0C7.2,2,5,5.9,5,10c0,4.9,2.5,8.9,6.5,10.6c0,1.1,0,7.4,0,13.4h-1.2c-2.2,0-4.1,1.8-4.1,3.9
			c0,1.1,0.4,2.1,1.1,2.9l0.1,0.1c-0.8,0.7-1.3,1.8-1.3,3s0.5,2.2,1.3,3c-0.8,0.7-1.3,1.8-1.3,3s0.5,2.2,1.3,2.9l-0.1,0.1
			c-0.8,0.8-1.2,1.8-1.1,2.9c0.1,2.2,1.9,3.9,4.1,3.9h19.3c1.4,0,7.5-2.5,10.5-3.7h3.4v1.1c0,0.6,0.5,1.1,1.1,1.1h9
			c0.6,0,1.1-0.5,1.1-1.1V39C54.8,38.4,54.3,37.9,53.7,37.9z M7.4,10.2c0-2.9,1.3-5.6,3.6-7.3c0,1.7,0,4.7,0,6s0.8,2.1,1.1,2.2
			c3.5,2.9,4.3,2.9,4.6,2.9s1.1,0,4.5-2.8c0.3-0.2,1.2-0.9,1.2-2.1c0-1.3,0-4.4,0-6.2c2.2,1.7,3.6,4.5,3.6,7.3
			c0,4.2-2.2,7.6-5.7,8.8c-0.4,0.2-0.7,0.6-0.7,1c0,0.2,0,10.1,0,14.1h-1.8v-8.5c0-0.6-0.5-1.1-1.1-1.1s-1.1,0.5-1.1,1.1v8.5h-1.8
			c0-4,0-13.9,0-14.1c0-0.5-0.3-0.9-0.7-1.1C9.5,17.8,7.4,14.4,7.4,10.2z M39.1,54.4c-4.1,1.7-8.5,3.4-9.4,3.4H10.4
			c-1,0-1.9-0.8-1.9-1.8c0-0.5,0.2-1,0.5-1.3c0.3-0.4,0.8-0.6,1.3-0.6l0,0h5c0.6,0,1.1-0.5,1.1-1.1s-0.5-1.1-1.1-1.1h-5l0,0
			c-1,0-1.9-0.8-1.9-1.9s0.8-1.9,1.9-1.9h5c0.6,0,1.1-0.5,1.1-1.1s-0.5-1.1-1.1-1.1h-5c-1,0-1.9-0.8-1.9-1.9s0.8-1.9,1.9-1.9l0,0h5
			c0.6,0,1.1-0.5,1.1-1.1s-0.5-1.1-1.1-1.1h-5c-0.5,0-1-0.2-1.3-0.6c-0.4-0.4-0.5-0.8-0.5-1.3c0-1,0.9-1.8,1.9-1.8h12.9
			c0.4,0,0.8-0.2,1-0.5s0.2-0.8,0-1.1L22.2,31c-0.3-0.6-0.4-1.3-0.2-1.9c0.2-0.6,0.6-1.2,1.3-1.5c0,0,0,0,0.1,0
			c0.6-0.4,1.3-0.5,2-0.3s1.3,0.6,1.6,1.2l2.5,4.3c1.4,2.5,3.4,4.6,5.8,6.3l0,0l3.9,2.6L39.1,54.4L39.1,54.4z M43.6,54.1h-2.3V42.4
			h2.3V54.1z M52.6,56.3L52.6,56.3h-6.9V40.1H48V49c0,0.6,0.5,1.1,1.1,1.1s1.1-0.5,1.1-1.1v-8.9h2.3L52.6,56.3L52.6,56.3z"/>
	</g>
</g>
<g>
	<g>
		<path fill="#2f383d" d="M50.3,53c0-0.1,0-0.1-0.1-0.2c0-0.1-0.1-0.1-0.1-0.2c0-0.1-0.1-0.1-0.1-0.2c-0.1-0.1-0.1-0.1-0.2-0.1
			c-0.1,0-0.1-0.1-0.2-0.1c-0.1,0-0.1,0-0.2-0.1c-0.1,0-0.3,0-0.4,0c-0.1,0-0.1,0-0.2,0.1c-0.1,0-0.1,0.1-0.2,0.1
			c-0.1,0-0.1,0.1-0.2,0.1s-0.1,0.1-0.1,0.2c0,0.1-0.1,0.1-0.1,0.2c0,0.1,0,0.1-0.1,0.2c0,0.1,0,0.1,0,0.2c0,0.1,0,0.1,0,0.2
			c0,0.1,0,0.1,0.1,0.2c0,0.1,0.1,0.1,0.1,0.2c0,0.1,0.1,0.1,0.1,0.2c0.1,0.1,0.1,0.1,0.2,0.1c0.1,0,0.1,0.1,0.2,0.1
			c0.1,0,0.1,0,0.2,0.1c0.1,0,0.1,0,0.2,0c0.1,0,0.1,0,0.2,0c0.1,0,0.1,0,0.2-0.1c0.1,0,0.1-0.1,0.2-0.1c0.1,0,0.1-0.1,0.2-0.1
			c0.1-0.1,0.1-0.1,0.1-0.2c0-0.1,0.1-0.1,0.1-0.2c0-0.1,0-0.1,0.1-0.2c0-0.1,0-0.1,0-0.2C50.3,53.2,50.3,53.1,50.3,53z"/>
	</g>
</g>
<g>
	<g>
		<path fill="#2f383d" d="M22.5,39.9c0-0.1,0-0.1-0.1-0.2c0-0.1-0.1-0.1-0.1-0.2c0-0.1-0.1-0.1-0.1-0.2c-0.1-0.1-0.1-0.1-0.2-0.1
			s-0.1-0.1-0.2-0.1s-0.1,0-0.2-0.1c-0.1,0-0.3,0-0.4,0s-0.1,0-0.2,0.1c-0.1,0-0.1,0.1-0.2,0.1s-0.1,0.1-0.2,0.1
			c-0.1,0.1-0.1,0.1-0.1,0.2c0,0.1-0.1,0.1-0.1,0.2c0,0.1,0,0.1-0.1,0.2c0,0.1,0,0.1,0,0.2c0,0.1,0,0.1,0,0.2c0,0.1,0,0.1,0.1,0.2
			c0,0.1,0.1,0.1,0.1,0.2c0,0.1,0.1,0.1,0.1,0.2c0.1,0.1,0.1,0.1,0.2,0.1s0.1,0.1,0.2,0.1s0.1,0,0.2,0.1c0.1,0,0.1,0,0.2,0
			s0.1,0,0.2,0s0.1,0,0.2-0.1c0.1,0,0.1-0.1,0.2-0.1s0.1-0.1,0.2-0.1c0.1-0.1,0.1-0.1,0.1-0.2c0-0.1,0.1-0.1,0.1-0.2
			c0-0.1,0-0.1,0.1-0.2c0-0.1,0-0.1,0-0.2C22.6,40,22.5,40,22.5,39.9z"/>
	</g>
</g>
<g>
	<g>
		<path fill="#2f383d" d="M21.5,43.2c-0.6,0-1.1,0.5-1.1,1.1v10.6c0,0.6,0.5,1.1,1.1,1.1s1.1-0.5,1.1-1.1V44.3
			C22.6,43.7,22.1,43.2,21.5,43.2z"/>
	</g>
</g>
</svg>
