<svg xmlns="http://www.w3.org/2000/svg" width="30" height="20.605" viewBox="0 0 30 20.605">
  <g id="Group_474" data-name="Group 474" transform="translate(-556 -1602)">
    <g id="Group_464" data-name="Group 464" transform="translate(556 1521.75)">
      <path id="Path_560" data-name="Path 560" d="M6.585,87.743A6.556,6.556,0,1,1,.029,94.3L0,93.362A13.112,13.112,0,0,1,13.112,80.25V84A9.3,9.3,0,0,0,6.49,86.74a9.5,9.5,0,0,0-.932,1.084A6.6,6.6,0,0,1,6.585,87.743Zm16.859,0A6.556,6.556,0,1,1,16.888,94.3l-.029-.937A13.112,13.112,0,0,1,29.971,80.25V84a9.3,9.3,0,0,0-6.623,2.743,9.5,9.5,0,0,0-.932,1.084A6.6,6.6,0,0,1,23.444,87.743Z" fill="#fff"/>
    </g>
  </g>
</svg>
