<svg xmlns="http://www.w3.org/2000/svg" width="20" height="20.453" viewBox="0 0 20 20.453">
  <g id="Group_477" data-name="Group 477" transform="translate(-1195 -615)">
    <g id="Group_452" data-name="Group 452" transform="translate(1189.589 615)">
      <g id="Group_451" data-name="Group 451" transform="translate(5.411)">
        <path id="Path_523" data-name="Path 523" d="M119.583,258.706a.464.464,0,0,0-.464-.464H117.5a.464.464,0,0,0-.464.464v1.62a.464.464,0,0,0,.464.464h1.62a.464.464,0,0,0,.464-.464v-1.62Z" transform="translate(-112.358 -247.422)" fill="#3461b0"/>
        <path id="Path_524" data-name="Path 524" d="M216.218,258.706a.464.464,0,0,0-.464-.464h-1.62a.464.464,0,0,0-.464.464v1.62a.464.464,0,0,0,.464.464h1.62a.464.464,0,0,0,.464-.464Z" transform="translate(-204.944 -247.422)" fill="#3461b0"/>
        <path id="Path_525" data-name="Path 525" d="M312.846,258.706a.464.464,0,0,0-.464-.464h-1.62a.464.464,0,0,0-.464.464v1.62a.464.464,0,0,0,.464.464h1.62a.464.464,0,0,0,.464-.464Z" transform="translate(-297.523 -247.422)" fill="#3461b0"/>
        <path id="Path_526" data-name="Path 526" d="M119.583,355.339a.464.464,0,0,0-.464-.464H117.5a.464.464,0,0,0-.464.464v1.62a.464.464,0,0,0,.464.464h1.62a.464.464,0,0,0,.464-.464v-1.62Z" transform="translate(-112.358 -340.006)" fill="#3461b0"/>
        <path id="Path_527" data-name="Path 527" d="M216.218,355.339a.464.464,0,0,0-.464-.464h-1.62a.464.464,0,0,0-.464.464v1.62a.464.464,0,0,0,.464.464h1.62a.464.464,0,0,0,.464-.464Z" transform="translate(-204.944 -340.006)" fill="#3461b0"/>
        <path id="Path_528" data-name="Path 528" d="M312.846,355.339a.464.464,0,0,0-.464-.464h-1.62a.464.464,0,0,0-.464.464v1.62a.464.464,0,0,0,.464.464h1.62a.464.464,0,0,0,.464-.464v-1.62Z" transform="translate(-297.523 -340.006)" fill="#3461b0"/>
        <path id="Path_529" data-name="Path 529" d="M23.631,54.151v2.474a2.021,2.021,0,0,1-2.025,2.019H20.328a2.031,2.031,0,0,1-2.037-2.019V54.142H12.532v2.483a2.031,2.031,0,0,1-2.037,2.019H9.217a2.021,2.021,0,0,1-2.025-2.019V54.151a1.842,1.842,0,0,0-1.78,1.832v14.5a1.843,1.843,0,0,0,1.833,1.844H23.578a1.845,1.845,0,0,0,1.833-1.844v-14.5A1.842,1.842,0,0,0,23.631,54.151ZM23.037,69.58a.793.793,0,0,1-.793.793H8.542a.793.793,0,0,1-.793-.793V62.09a.793.793,0,0,1,.793-.793h13.7a.793.793,0,0,1,.793.793v7.49Z" transform="translate(-5.411 -51.873)" fill="#3461b0"/>
        <path id="Path_530" data-name="Path 530" d="M80.245,5.445h1.264a.694.694,0,0,0,.695-.694V.694A.694.694,0,0,0,81.508,0H80.245a.694.694,0,0,0-.695.694V4.751A.694.694,0,0,0,80.245,5.445Z" transform="translate(-76.444)" fill="#3461b0"/>
        <path id="Path_531" data-name="Path 531" d="M345.153,5.445h1.264a.694.694,0,0,0,.694-.694V.694A.694.694,0,0,0,346.416,0h-1.264a.694.694,0,0,0-.695.694V4.751A.694.694,0,0,0,345.153,5.445Z" transform="translate(-330.252)" fill="#3461b0"/>
      </g>
    </g>
  </g>
</svg>
