<svg xmlns="http://www.w3.org/2000/svg" width="13.014" height="12.4" viewBox="0 0 13.014 12.4">
  <g id="Group_474" data-name="Group 474" transform="translate(-1412.5 -504.5)">
    <path id="Subtraction_1" data-name="Subtraction 1" d="M-1978.2,11.4l-.028,0a10.623,10.623,0,0,1-3.324-1.067,6.5,6.5,0,0,1-2.448.47c-3.309,0-6-2.422-6-5.4s2.692-5.4,6-5.4,6,2.422,6,5.4a5,5,0,0,1-.953,2.921,4.668,4.668,0,0,0,.895,2.738.2.2,0,0,1,.038.23A.2.2,0,0,1-1978.2,11.4Zm-2.519-6.953a1.089,1.089,0,0,0-1.088,1.088,1.09,1.09,0,0,0,1.088,1.089,1.09,1.09,0,0,0,1.089-1.089A1.09,1.09,0,0,0-1980.719,4.447Zm-3.266,0a1.09,1.09,0,0,0-1.089,1.088,1.09,1.09,0,0,0,1.089,1.089,1.09,1.09,0,0,0,1.088-1.089A1.089,1.089,0,0,0-1983.985,4.447Zm-3.266,0a1.09,1.09,0,0,0-1.089,1.088,1.09,1.09,0,0,0,1.089,1.089,1.09,1.09,0,0,0,1.088-1.089A1.089,1.089,0,0,0-1987.251,4.447Z" transform="translate(3403 505)" fill="#999" stroke="rgba(0,0,0,0)" stroke-width="1"/>
  </g>
</svg>
