<svg xmlns="http://www.w3.org/2000/svg" width="12.003" height="9.431" viewBox="0 0 12.003 9.431">
  <g id="Group_509" data-name="Group 509" transform="translate(-405.997 -3262)">
    <g id="Group_395" data-name="Group 395" transform="translate(405.997 3202.987)">
      <g id="Group_394" data-name="Group 394" transform="translate(0 59.013)">
        <path id="Path_430" data-name="Path 430" d="M27.508,327.192a1.026,1.026,0,0,0,.7-.265l-3.4-3.4-.235.169q-.382.281-.62.439a3.818,3.818,0,0,1-.633.322,1.929,1.929,0,0,1-.737.164h-.013a1.929,1.929,0,0,1-.737-.164,3.805,3.805,0,0,1-.633-.322q-.238-.157-.62-.439l-.235-.17-3.4,3.4a1.026,1.026,0,0,0,.7.265Z" transform="translate(-16.577 -317.761)" fill="#3461b0"/>
        <path id="Path_431" data-name="Path 431" d="M.677,199.138A3.551,3.551,0,0,1,0,198.555v5.174l3-3Q2.1,200.1.677,199.138Z" transform="translate(0 -195.514)" fill="#3461b0"/>
        <path id="Path_432" data-name="Path 432" d="M415.635,199.138q-1.368.926-2.326,1.6l3,3v-5.174A3.7,3.7,0,0,1,415.635,199.138Z" transform="translate(-404.302 -195.514)" fill="#3461b0"/>
        <path id="Path_433" data-name="Path 433" d="M10.937,59.013H1.078a.956.956,0,0,0-.794.348,1.351,1.351,0,0,0-.278.871,1.565,1.565,0,0,0,.368.914,3.323,3.323,0,0,0,.784.774q.228.161,1.373.954l1.079.75.676.473.1.071.185.133q.218.157.362.255t.348.218a2.032,2.032,0,0,0,.385.181,1.066,1.066,0,0,0,.335.06h.013a1.066,1.066,0,0,0,.335-.06,2.028,2.028,0,0,0,.385-.181q.2-.121.348-.218t.362-.255l.185-.133.1-.071.678-.471,2.457-1.706a3.186,3.186,0,0,0,.817-.824,1.772,1.772,0,0,0,.328-1.011,1.08,1.08,0,0,0-1.072-1.072Z" transform="translate(-0.006 -59.013)" fill="#3461b0"/>
      </g>
    </g>
  </g>
</svg>
