<svg xmlns="http://www.w3.org/2000/svg" width="9.732" height="18" viewBox="0 0 9.732 18">
  <g id="Group_510" data-name="Group 510" transform="translate(-416 -3312)">
    <g id="Group_404" data-name="Group 404" transform="translate(393.923 3312)">
      <path id="Path_444" data-name="Path 444" d="M31.442,0,29.108,0a4.1,4.1,0,0,0-4.317,4.43V6.472H22.444a.367.367,0,0,0-.367.367V9.8a.367.367,0,0,0,.367.367h2.347v7.467a.367.367,0,0,0,.367.367H28.22a.367.367,0,0,0,.367-.367V10.166h2.744A.367.367,0,0,0,31.7,9.8V6.839a.367.367,0,0,0-.367-.367H28.587V4.741c0-.832.2-1.255,1.282-1.255h1.572a.367.367,0,0,0,.367-.367V.371A.367.367,0,0,0,31.442,0Z" fill="#fff"/>
    </g>
  </g>
</svg>
