<svg xmlns="http://www.w3.org/2000/svg" width="21.818" height="20" viewBox="0 0 21.818 20">
  <g id="Group_470" data-name="Group 470" transform="translate(-435 -622)">
    <g id="Group_453" data-name="Group 453" transform="translate(435 620.125)">
      <path id="Path_532" data-name="Path 532" d="M21.551,9a1.213,1.213,0,0,0-.945-.454H19.394A1.212,1.212,0,0,0,18.182,7.33H16.97V6.117a1.212,1.212,0,0,0-1.212-1.212h-.606V2.481a.607.607,0,0,0-.606-.606H2.424a.606.606,0,0,0-.606.606V4.905H1.212A1.212,1.212,0,0,0,0,6.117V20.663a1.212,1.212,0,0,0,1.212,1.212h16.97a1.21,1.21,0,0,0,1.183-.949l2.424-10.909A1.208,1.208,0,0,0,21.551,9ZM1.818,20.663H1.212V6.117h.606ZM14.545,7.33a1.212,1.212,0,0,0-1.212,1.212H6.061a1.212,1.212,0,0,0-1.184.949S2.425,20.576,2.425,20.663h0V2.481H14.545Zm1.212,0h-.606V6.117h.606ZM12.04,5.168H4.808a.606.606,0,0,1,0-1.212H12.04a.606.606,0,1,1,0,1.212Zm0,2.464H4.808a.606.606,0,1,1,0-1.212H12.04a.606.606,0,1,1,0,1.212Z" fill="#3461b0"/>
    </g>
  </g>
</svg>
