<svg xmlns="http://www.w3.org/2000/svg" width="22" height="20.308" viewBox="0 0 22 20.308">
  <g id="Group_473" data-name="Group 473" transform="translate(-5530 -6128)">
    <g id="Group_458" data-name="Group 458" transform="translate(5530 6127)">
      <path id="Path_540" data-name="Path 540" d="M9.308,3H.846A.8.8,0,0,0,0,3.846V5.538a.8.8,0,0,0,.846.846H9.308a.8.8,0,0,0,.846-.846V3.846A.8.8,0,0,0,9.308,3Z" transform="translate(0 -0.308)" fill="#3461b0"/>
      <path id="Path_541" data-name="Path 541" d="M9.308,11H.846A.8.8,0,0,0,0,11.846v1.692a.8.8,0,0,0,.846.846H9.308a.8.8,0,0,0,.846-.846V11.846A.8.8,0,0,0,9.308,11Z" transform="translate(0 -1.538)" fill="#3461b0"/>
      <path id="Path_542" data-name="Path 542" d="M9.308,19H.846A.8.8,0,0,0,0,19.846v1.692a.8.8,0,0,0,.846.846H9.308a.8.8,0,0,0,.846-.846V19.846A.8.8,0,0,0,9.308,19Z" transform="translate(0 -2.769)" fill="#3461b0"/>
      <path id="Path_543" data-name="Path 543" d="M24.208,13.1l-1.185-1.185a.914.914,0,0,0-.592-.254.768.768,0,0,0-.592.254l-1.692,1.692a.456.456,0,0,1-.762-.338V1.846A.91.91,0,0,0,18.538,1H16.846A.91.91,0,0,0,16,1.846V20.462a.768.768,0,0,0,.254.592.914.914,0,0,0,.592.254.768.768,0,0,0,.592-.254l6.769-6.769a.818.818,0,0,0,0-1.185Z" transform="translate(-2.462)" fill="#3461b0"/>
    </g>
  </g>
</svg>
