<svg xmlns="http://www.w3.org/2000/svg" width="101.713" height="51.774" viewBox="0 0 101.713 51.774">
  <g id="Group_505" data-name="Group 505" transform="translate(-404.5 -37.5)">
    <path id="Union_1" data-name="Union 1" d="M-1906.76,62.771a1.609,1.609,0,0,1-.543-.732,3.065,3.065,0,0,1-.211-1.19,2.774,2.774,0,0,1,.212-1.147,1.618,1.618,0,0,1,.572-.708,1.426,1.426,0,0,1,.806-.239,1.235,1.235,0,0,1,.837.3,1.637,1.637,0,0,1,.49.889l-.437.126q-.224-.853-.9-.854a.991.991,0,0,0-.583.172,1.162,1.162,0,0,0-.393.536,2.475,2.475,0,0,0-.148.922,2.2,2.2,0,0,0,.3,1.264.92.92,0,0,0,.789.421.865.865,0,0,0,.628-.259,1.392,1.392,0,0,0,.354-.785l.448.137a1.9,1.9,0,0,1-.519,1.031,1.288,1.288,0,0,1-.9.34A1.371,1.371,0,0,1-1906.76,62.771Zm-12.6-.147a1.43,1.43,0,0,1-.385-1.015l.419-.045a1.233,1.233,0,0,0,.153.527.862.862,0,0,0,.34.3,1.063,1.063,0,0,0,.5.115.9.9,0,0,0,.617-.194.639.639,0,0,0,.22-.5.614.614,0,0,0-.08-.317.6.6,0,0,0-.24-.222,4.486,4.486,0,0,0-.7-.245,2.445,2.445,0,0,1-.677-.284.988.988,0,0,1-.314-.362,1.08,1.08,0,0,1-.112-.5,1.092,1.092,0,0,1,.322-.814,1.184,1.184,0,0,1,.867-.316,1.386,1.386,0,0,1,.656.148,1.053,1.053,0,0,1,.437.426,1.4,1.4,0,0,1,.166.651l-.428.04a.885.885,0,0,0-.239-.594.814.814,0,0,0-.578-.193.867.867,0,0,0-.576.169.547.547,0,0,0-.2.438.5.5,0,0,0,.145.386,1.741,1.741,0,0,0,.655.278,4.26,4.26,0,0,1,.7.239,1.129,1.129,0,0,1,.465.413,1.148,1.148,0,0,1,.157.611,1.268,1.268,0,0,1-.165.642,1.1,1.1,0,0,1-.449.44,1.439,1.439,0,0,1-.684.151A1.335,1.335,0,0,1-1919.358,62.625Zm-10.268.147a1.609,1.609,0,0,1-.543-.732,3.065,3.065,0,0,1-.211-1.19,2.785,2.785,0,0,1,.211-1.147A1.623,1.623,0,0,1-1929.6,59a1.427,1.427,0,0,1,.807-.239,1.238,1.238,0,0,1,.838.3,1.637,1.637,0,0,1,.49.889l-.436.126q-.224-.853-.9-.854a.992.992,0,0,0-.583.172,1.163,1.163,0,0,0-.393.536,2.466,2.466,0,0,0-.147.922,2.206,2.206,0,0,0,.3,1.264.922.922,0,0,0,.789.421.865.865,0,0,0,.629-.259,1.4,1.4,0,0,0,.354-.785l.448.137a1.9,1.9,0,0,1-.519,1.031,1.29,1.29,0,0,1-.9.34A1.371,1.371,0,0,1-1929.626,62.771Zm-8.777-.421a2.411,2.411,0,0,1-.411-1.418,2.486,2.486,0,0,1,.462-1.613,1.429,1.429,0,0,1,1.15-.564,1.4,1.4,0,0,1,.811.252,1.7,1.7,0,0,1,.58.732,2.786,2.786,0,0,1,.214,1.143,2.483,2.483,0,0,1-.414,1.486A1.409,1.409,0,0,1-1937.2,63,1.4,1.4,0,0,1-1938.4,62.351Zm.374-2.71a2.112,2.112,0,0,0-.326,1.3,1.842,1.842,0,0,0,.334,1.178,1.008,1.008,0,0,0,.813.418,1.008,1.008,0,0,0,.821-.423,1.986,1.986,0,0,0,.332-1.243,2.488,2.488,0,0,0-.171-.947,1.164,1.164,0,0,0-.4-.511.963.963,0,0,0-.578-.192A1.006,1.006,0,0,0-1938.029,59.64Zm-7.134,2.71a2.409,2.409,0,0,1-.411-1.418,2.485,2.485,0,0,1,.461-1.613,1.429,1.429,0,0,1,1.15-.564,1.4,1.4,0,0,1,.811.252,1.7,1.7,0,0,1,.581.732,2.786,2.786,0,0,1,.214,1.143,2.476,2.476,0,0,1-.414,1.486,1.408,1.408,0,0,1-1.195.632A1.4,1.4,0,0,1-1945.163,62.351Zm.373-2.71a2.112,2.112,0,0,0-.326,1.3,1.846,1.846,0,0,0,.334,1.178,1.009,1.009,0,0,0,.813.418,1.008,1.008,0,0,0,.821-.423,1.987,1.987,0,0,0,.331-1.243,2.472,2.472,0,0,0-.171-.947,1.164,1.164,0,0,0-.4-.511.961.961,0,0,0-.578-.192A1,1,0,0,0-1944.79,59.64Zm-3.292,3.131a1.609,1.609,0,0,1-.543-.732,3.065,3.065,0,0,1-.211-1.19,2.785,2.785,0,0,1,.211-1.147,1.623,1.623,0,0,1,.572-.708,1.427,1.427,0,0,1,.807-.239,1.238,1.238,0,0,1,.838.3,1.637,1.637,0,0,1,.49.889l-.436.126q-.224-.853-.9-.854a.992.992,0,0,0-.583.172,1.162,1.162,0,0,0-.393.536,2.463,2.463,0,0,0-.148.922,2.206,2.206,0,0,0,.3,1.264.922.922,0,0,0,.789.421.864.864,0,0,0,.628-.259,1.4,1.4,0,0,0,.354-.785l.448.137a1.9,1.9,0,0,1-.519,1.031,1.29,1.29,0,0,1-.9.34A1.371,1.371,0,0,1-1948.082,62.771Zm-11.243-.421a2.4,2.4,0,0,1-.412-1.418,2.484,2.484,0,0,1,.462-1.613,1.429,1.429,0,0,1,1.15-.564,1.4,1.4,0,0,1,.811.252,1.7,1.7,0,0,1,.58.732,2.786,2.786,0,0,1,.214,1.143,2.481,2.481,0,0,1-.414,1.486,1.409,1.409,0,0,1-1.195.632A1.4,1.4,0,0,1-1959.325,62.351Zm.373-2.71a2.112,2.112,0,0,0-.326,1.3,1.842,1.842,0,0,0,.334,1.178,1.009,1.009,0,0,0,.813.418,1.008,1.008,0,0,0,.821-.423,1.986,1.986,0,0,0,.332-1.243,2.476,2.476,0,0,0-.171-.947,1.164,1.164,0,0,0-.4-.511.961.961,0,0,0-.577-.192A1.006,1.006,0,0,0-1958.952,59.64Zm-22.386,3.131a1.611,1.611,0,0,1-.542-.732,3.056,3.056,0,0,1-.211-1.19,2.792,2.792,0,0,1,.211-1.147,1.621,1.621,0,0,1,.572-.708,1.427,1.427,0,0,1,.807-.239,1.238,1.238,0,0,1,.838.3,1.644,1.644,0,0,1,.49.889l-.437.126q-.223-.853-.9-.854a.989.989,0,0,0-.583.172,1.164,1.164,0,0,0-.394.536,2.482,2.482,0,0,0-.146.922,2.206,2.206,0,0,0,.3,1.264.922.922,0,0,0,.789.421.866.866,0,0,0,.628-.259,1.4,1.4,0,0,0,.354-.785l.448.137a1.9,1.9,0,0,1-.519,1.031,1.287,1.287,0,0,1-.9.34A1.373,1.373,0,0,1-1981.337,62.771Zm79.4.158V61h-1.748V62.93h-.445v-4.1h.445v1.684h1.748V58.829h.445v4.1Zm-6.282,0-.449-.852a5.343,5.343,0,0,0-.393-.675.764.764,0,0,0-.257-.234.808.808,0,0,0-.348-.06h-.514V62.93h-.445v-4.1h1.491a1.588,1.588,0,0,1,.69.114.878.878,0,0,1,.365.382,1.3,1.3,0,0,1,.143.62,1.131,1.131,0,0,1-.242.752,1.125,1.125,0,0,1-.7.366,1.14,1.14,0,0,1,.286.228,2.86,2.86,0,0,1,.349.523l.588,1.116Zm-1.961-2.291h.957a1.162,1.162,0,0,0,.476-.076.579.579,0,0,0,.257-.237.736.736,0,0,0,.095-.378.651.651,0,0,0-.182-.488.742.742,0,0,0-.54-.178h-1.063Zm-1.16,2.291-.391-1.242h-1.415l-.365,1.242h-.469l1.3-4.1h.476l1.378,4.1Zm-1.3-2.887-.374,1.2h1.145l-.35-1.136c-.108-.348-.187-.632-.238-.85A6.035,6.035,0,0,1-1912.642,60.043Zm-3.952,2.887v-4.1h2.432v.484h-1.987v1.253h1.861v.484h-1.861v1.4h2.065v.484Zm-5.98,0v-4.1h2.431v.484h-1.986v1.253h1.861v.484h-1.861v1.4h2.065v.484Zm-.852,0-.449-.852a5.465,5.465,0,0,0-.393-.675.769.769,0,0,0-.257-.234.808.808,0,0,0-.348-.06h-.514V62.93h-.445v-4.1h1.491a1.583,1.583,0,0,1,.69.114.88.88,0,0,1,.365.382,1.3,1.3,0,0,1,.142.62,1.13,1.13,0,0,1-.242.752,1.127,1.127,0,0,1-.7.366,1.15,1.15,0,0,1,.285.228,2.85,2.85,0,0,1,.35.523l.587,1.116Zm-1.961-2.291h.956a1.161,1.161,0,0,0,.476-.076.574.574,0,0,0,.257-.237.734.734,0,0,0,.1-.378.653.653,0,0,0-.182-.488.743.743,0,0,0-.54-.178h-1.063Zm-5.932,2.291v-4.1h.445v4.1Zm-1.085,0V59.5l-.98,3.43h-.4l-.975-3.489V62.93h-.428v-4.1h.669l.8,2.9.16.607q.059-.227.179-.658l.807-2.853h.6v4.1Zm-7.351,0-1.765-3.227V62.93h-.428v-4.1h.456l1.768,3.227V58.829h.425v4.1Zm-11.922,0v-4.1h2.432v.484h-1.987v1.253h1.861v.484h-1.861v1.4h2.065v.484Zm-2.015,0-.449-.852a5.421,5.421,0,0,0-.393-.675.768.768,0,0,0-.257-.234.809.809,0,0,0-.348-.06h-.515V62.93h-.444v-4.1h1.491a1.582,1.582,0,0,1,.689.114.882.882,0,0,1,.365.382,1.3,1.3,0,0,1,.142.62,1.13,1.13,0,0,1-.242.752,1.127,1.127,0,0,1-.7.366,1.15,1.15,0,0,1,.285.228,2.85,2.85,0,0,1,.35.523l.587,1.116Zm-1.962-2.291h.957a1.161,1.161,0,0,0,.476-.076.574.574,0,0,0,.257-.237.733.733,0,0,0,.1-.378.653.653,0,0,0-.181-.488.743.743,0,0,0-.54-.178h-1.064Zm-6.651,2.291v-4.1h2.269v.484h-1.824v1.27h1.578v.484h-1.578V62.93Zm-2.038,0-.449-.852a5.433,5.433,0,0,0-.393-.675.761.761,0,0,0-.257-.234.808.808,0,0,0-.348-.06h-.514V62.93h-.445v-4.1h1.491a1.582,1.582,0,0,1,.69.114.875.875,0,0,1,.365.382,1.3,1.3,0,0,1,.143.62,1.131,1.131,0,0,1-.242.752,1.126,1.126,0,0,1-.7.366,1.137,1.137,0,0,1,.285.228,2.863,2.863,0,0,1,.35.523l.588,1.116Zm-1.961-2.291h.957a1.16,1.16,0,0,0,.475-.076.58.58,0,0,0,.258-.237.735.735,0,0,0,.1-.378.654.654,0,0,0-.182-.488.743.743,0,0,0-.54-.178h-1.063Zm-3.424,2.291v-4.1h2.431v.484h-1.986v1.253h1.86v.484h-1.86v1.4h2.065v.484Zm-1.874,0V59.313h-1.108v-.484h2.667v.484h-1.114V62.93Zm-1.929,0L-1975.3,59.7V62.93h-.428v-4.1h.456l1.768,3.227V58.829h.426v4.1Zm-5.161,0v-4.1h2.431v.484h-1.987v1.253h1.861v.484h-1.861v1.4h2.065v.484Zm80.933-1.048a20.376,20.376,0,0,0,.569-7.454c-.352-4.9-2.795-8.584-6.756-11.365a23.19,23.19,0,0,0-11.223-3.915c-1.412-.145-2.83-.208-4.344-.317.7-.7,1.344-1.367,2-2.016q6.409-6.305,12.821-12.607c.807-.8.76-1.323-.223-1.893a8.122,8.122,0,0,0-4.158-1h-18.846c-3.272,0-6.545.059-9.815-.015-4-.091-6.862,1.785-8.88,5.06a26.055,26.055,0,0,0-1.609,3.669,3.576,3.576,0,0,0-.13.732h32.877c.051.081.1.162.156.244-.436.371-.9.718-1.305,1.116-2.155,2.094-4.29,4.209-6.458,6.291a1.488,1.488,0,0,1-.933.386q-11.62.034-23.242.021h-.878a14.772,14.772,0,0,0,.331,1.467,11.711,11.711,0,0,0,6.111,7.222,8.183,8.183,0,0,0,3.563.758q9.815.011,19.629,0a31.421,31.421,0,0,0,8.257-1.176c.4-.11.81-.181,1.215-.27l.13.166c-.678.639-1.369,1.266-2.032,1.921-2.493,2.466-4.973,4.945-7.473,7.4a1.231,1.231,0,0,1-.77.339c-7.005.019-14.01.055-21.014.007-5.076-.035-8.976-2.441-12.112-6.28a24.656,24.656,0,0,1-5.428-14.077,23.493,23.493,0,0,1,1.163-10.027,20.452,20.452,0,0,1,10.221-11.856,13.564,13.564,0,0,1,4.614-1.278c.256-.028.509-.088.762-.134h33.238c1.188.169,2.387.278,3.56.518a13.941,13.941,0,0,1,7.691,3.926,5.244,5.244,0,0,1,.043,7.623c-1.8,1.979-3.841,3.736-5.786,5.58-.793.751-1.614,1.474-2.5,2.281.378.2.65.348.932.48a28.76,28.76,0,0,1,8.308,5.641,19.021,19.021,0,0,1,4.506,7.022,28.383,28.383,0,0,1,1.679,6.873,1.423,1.423,0,0,1-.465,1.278c-2.363,2.312-4.706,4.644-7.056,6.969l-.935.92A.828.828,0,0,1-1897.762,61.881Zm-74.387-5.208a14.649,14.649,0,0,1-7.754-2.047,19.615,19.615,0,0,1-5.661-5.4,22.9,22.9,0,0,1-4.118-10.146,29.125,29.125,0,0,1-.105-7.8,22.858,22.858,0,0,1,1.968-7.155,19.594,19.594,0,0,1,9.081-9.731,13.193,13.193,0,0,1,4.547-1.266c.278-.027.552-.085.828-.13h27.578c-1.1.516-2.245.956-3.294,1.56a17.88,17.88,0,0,0-6,5.954,1.7,1.7,0,0,1-1.621.927c-2.27-.024-4.539-.018-6.809-.012-2.166.006-4.332.011-6.5-.008a9.384,9.384,0,0,0-8.148,4.519c-3.04,4.413-3.427,9.258-1.9,14.262a11.7,11.7,0,0,0,5.4,6.959,8.472,8.472,0,0,0,4.318,1.112q2.157,0,4.315,0c3.117,0,6.234.007,9.352-.029a1.553,1.553,0,0,1,1.526.855,17.325,17.325,0,0,0,8.218,7.207c.129.055.253.119.377.184.028.015.041.057.1.143-.227.013-.418.032-.609.032h-7.515q-8.767,0-17.534.011Z" transform="translate(2395 25)" fill="#3461b0" stroke="rgba(0,0,0,0)" stroke-width="1"/>
  </g>
</svg>
