<svg xmlns="http://www.w3.org/2000/svg" width="16" height="14.899" viewBox="0 0 16 14.899">
  <g id="Group_469" data-name="Group 469" transform="translate(-732 -68)">
    <g id="Group_49" data-name="Group 49" transform="translate(732 50.953)">
      <g id="Group_50" data-name="Group 50" transform="translate(0 17.047)">
        <g id="Group_49-2" data-name="Group 49" transform="translate(0 0)">
          <path id="Path_63" data-name="Path 63" d="M15.732,23.78l-2.425-2.425v-2.8a.917.917,0,0,0-1.834,0v.967L9.667,17.715a2.413,2.413,0,0,0-3.335,0L.269,23.78a.917.917,0,1,0,1.3,1.3l6.063-6.063a.541.541,0,0,1,.742,0l6.064,6.064a.917.917,0,1,0,1.3-1.3Z" transform="translate(0 -17.047)" fill="#fff"/>
          <path id="Path_64" data-name="Path 64" d="M74.729,127.88a.45.45,0,0,0-.637,0l-5.333,5.332a.451.451,0,0,0-.132.319v3.889a1.652,1.652,0,0,0,1.652,1.652h2.64v-4.089H75.9v4.089h2.64a1.652,1.652,0,0,0,1.652-1.652V133.53a.45.45,0,0,0-.132-.319Z" transform="translate(-66.411 -124.172)" fill="#fff"/>
        </g>
      </g>
    </g>
  </g>
</svg>
