<svg xmlns="http://www.w3.org/2000/svg" width="14" height="13.38" viewBox="0 0 14 13.38">
  <g id="Group_512" data-name="Group 512" transform="translate(0 -9.708)">
    <g id="Group_406" data-name="Group 406" transform="translate(0 9.708)">
      <rect id="Rectangle_78" data-name="Rectangle 78" width="3.008" height="9.032" transform="translate(0.173 4.348)" fill="#fff"/>
      <path id="Path_446" data-name="Path 446" d="M159.809,140.366a3.237,3.237,0,0,0-2.506-1.035,3.612,3.612,0,0,0-1.044.141,2.368,2.368,0,0,0-.793.4,3.4,3.4,0,0,0-.87.956V139.54h-3l.009.438q.009.438.009,2.7t-.018,5.9h3v-5.04a2.2,2.2,0,0,1,.1-.738,1.936,1.936,0,0,1,.579-.779,1.476,1.476,0,0,1,.962-.315,1.3,1.3,0,0,1,1.153.542,2.637,2.637,0,0,1,.369,1.5v4.831h3V143.4A4.34,4.34,0,0,0,159.809,140.366Z" transform="translate(-146.757 -135.193)" fill="#fff"/>
      <path id="Path_447" data-name="Path 447" d="M1.7,9.708a1.716,1.716,0,0,0-1.226.442A1.468,1.468,0,0,0,0,11.267a1.494,1.494,0,0,0,.456,1.112,1.645,1.645,0,0,0,1.2.447h.018a1.717,1.717,0,0,0,1.235-.447,1.443,1.443,0,0,0,.46-1.112,1.52,1.52,0,0,0-.465-1.116A1.667,1.667,0,0,0,1.7,9.708Z" transform="translate(0 -9.708)" fill="#fff"/>
    </g>
  </g>
</svg>
