<svg xmlns="http://www.w3.org/2000/svg" width="10.308" height="14" viewBox="0 0 10.308 14">
  <g id="Group_506" data-name="Group 506" transform="translate(-406 -3147)">
    <g id="Group_397" data-name="Group 397" transform="translate(393.117 3147)">
      <path id="Path_435" data-name="Path 435" d="M18.037,0a5.16,5.16,0,0,0-5.154,5.154,5.028,5.028,0,0,0,.451,2.1A32.5,32.5,0,0,0,17.82,13.9a.287.287,0,0,0,.435,0,32.514,32.514,0,0,0,4.486-6.642,5.025,5.025,0,0,0,.451-2.1A5.161,5.161,0,0,0,18.037,0Zm0,7.831a2.677,2.677,0,1,1,2.677-2.677A2.68,2.68,0,0,1,18.037,7.831Z" fill="#3461b0"/>
    </g>
  </g>
</svg>
