<svg xmlns="http://www.w3.org/2000/svg" width="22.255" height="25" viewBox="0 0 22.255 25">
  <g id="Group_471" data-name="Group 471" transform="translate(-434.5 -675.5)">
    <g id="Group_454" data-name="Group 454" transform="translate(403.496 676)">
      <path id="Path_533" data-name="Path 533" d="M118.733,259.573c0-.646-.449-1.032-1.241-1.032a2.713,2.713,0,0,0-.657.062v2.075a2.463,2.463,0,0,0,.531.041C118.212,260.72,118.733,260.293,118.733,259.573Z" transform="translate(-81.614 -247.276)" fill="#999" stroke="rgba(0,0,0,0)" stroke-width="1"/>
      <path id="Path_534" data-name="Path 534" d="M257.076,259.019a3.31,3.31,0,0,0-.72.063v4.6a2.887,2.887,0,0,0,.553.032,2.179,2.179,0,0,0,2.377-2.461A2.015,2.015,0,0,0,257.076,259.019Z" transform="translate(-215.055 -247.733)" fill="#999" stroke="rgba(0,0,0,0)" stroke-width="1"/>
      <path id="Path_535" data-name="Path 535" d="M51.413,8.585h-.576V5.8a.406.406,0,0,0-.005-.052.462.462,0,0,0-.112-.3L46.093.161l0,0A.467.467,0,0,0,46,.079L45.965.061a.485.485,0,0,0-.093-.039L45.847.013A.469.469,0,0,0,45.739,0H34.367a.942.942,0,0,0-.941.941V8.584h-.576A1.345,1.345,0,0,0,31.5,9.93v7a1.345,1.345,0,0,0,1.345,1.345h.576v4.789a.942.942,0,0,0,.941.941H49.9a.942.942,0,0,0,.941-.941V18.27h.576a1.345,1.345,0,0,0,1.345-1.345v-7A1.345,1.345,0,0,0,51.413,8.585ZM34.367.941h10.9V5.757a.471.471,0,0,0,.471.471H49.9V8.585H34.367ZM45.92,13.465a3.562,3.562,0,0,1-1.169,2.847,5.042,5.042,0,0,1-3.242.907,13.814,13.814,0,0,1-1.8-.1v-6.9a14.219,14.219,0,0,1,2.148-.146,4.524,4.524,0,0,1,2.878.751A3.11,3.11,0,0,1,45.92,13.465ZM33.648,17.146V10.212a13.062,13.062,0,0,1,2.148-.146,3.369,3.369,0,0,1,2.148.563,2.053,2.053,0,0,1,.75,1.626,2.243,2.243,0,0,1-.646,1.668,3.258,3.258,0,0,1-2.284.741,3.979,3.979,0,0,1-.542-.032v2.513H33.648ZM49.9,22.8H34.367V18.27H49.9V22.8ZM51.26,11.422h-2.7v1.606h2.523V14.32H48.559v2.826H46.964V10.118h4.3Z" transform="translate(0)" fill="#3461b0" stroke="rgba(0,0,0,0)" stroke-width="1"/>
    </g>
  </g>
</svg>
