<svg xmlns="http://www.w3.org/2000/svg" width="48.257" height="50" viewBox="0 0 48.257 50">
  <g id="Group_485" data-name="Group 485" transform="translate(-1621 -148)">
    <g id="Group_481" data-name="Group 481">
      <g id="Group_201" data-name="Group 201" transform="translate(1612.807 148)">
        <path id="Path_144" data-name="Path 144" d="M53.152,3.191H48.845a.8.8,0,1,0,0,1.6h1.484a3.278,3.278,0,0,0-.474,1.7V44.2a.8.8,0,1,0,1.6,0V6.489a1.7,1.7,0,0,1,3.4,0V44.2a4.2,4.2,0,0,1-8.4,0V.8a.8.8,0,0,0-.8-.8H8.991a.8.8,0,0,0-.8.8V44.2a5.8,5.8,0,0,0,5.8,5.8H50.653a5.8,5.8,0,0,0,5.8-5.8V6.489A3.3,3.3,0,0,0,53.152,3.191ZM13.99,48.4a4.206,4.206,0,0,1-4.2-4.2V1.6H44.855V44.2a5.782,5.782,0,0,0,1.807,4.2Z" fill="#fff"/>
        <path id="Path_145" data-name="Path 145" d="M77.142,40H48.991a.8.8,0,0,0-.8.8v7.979a.8.8,0,0,0,.8.8H77.142a.8.8,0,0,0,.8-.8V40.8A.8.8,0,0,0,77.142,40Zm-.8,7.979H49.789V41.6H76.345Z" transform="translate(-35.745 -35.745)" fill="#fff"/>
        <path id="Path_146" data-name="Path 146" d="M77.142,145H48.991a.8.8,0,1,0,0,1.6H77.142a.8.8,0,0,0,0-1.6Z" transform="translate(-35.745 -129.574)" fill="#fff"/>
        <path id="Path_147" data-name="Path 147" d="M208.784,205H196.3a.8.8,0,0,0,0,1.6h12.48a.8.8,0,1,0,0-1.6Z" transform="translate(-167.386 -183.191)" fill="#fff"/>
        <path id="Path_148" data-name="Path 148" d="M61.471,205H48.991a.8.8,0,1,0,0,1.6h12.48a.8.8,0,1,0,0-1.6Z" transform="translate(-35.745 -183.191)" fill="#fff"/>
        <path id="Path_149" data-name="Path 149" d="M208.784,235H196.3a.8.8,0,0,0,0,1.6h12.48a.8.8,0,1,0,0-1.6Z" transform="translate(-167.386 -210)" fill="#fff"/>
        <path id="Path_150" data-name="Path 150" d="M61.471,235H48.991a.8.8,0,1,0,0,1.6h12.48a.8.8,0,1,0,0-1.6Z" transform="translate(-35.745 -210)" fill="#fff"/>
        <path id="Path_151" data-name="Path 151" d="M208.784,265H196.3a.8.8,0,0,0,0,1.6h12.48a.8.8,0,1,0,0-1.6Z" transform="translate(-167.386 -236.809)" fill="#fff"/>
        <path id="Path_152" data-name="Path 152" d="M208.784,295H196.3a.8.8,0,0,0,0,1.6h12.48a.8.8,0,1,0,0-1.6Z" transform="translate(-167.386 -263.617)" fill="#fff"/>
        <path id="Path_153" data-name="Path 153" d="M196.3,326.6h8.225a.8.8,0,0,0,0-1.6H196.3a.8.8,0,0,0,0,1.6Z" transform="translate(-167.386 -290.426)" fill="#fff"/>
        <path id="Path_154" data-name="Path 154" d="M204.528,415H196.3a.8.8,0,0,0,0,1.6h8.225a.8.8,0,0,0,0-1.6Z" transform="translate(-167.385 -370.851)" fill="#fff"/>
        <path id="Path_155" data-name="Path 155" d="M208.784,385H196.3a.8.8,0,1,0,0,1.6h12.48a.8.8,0,1,0,0-1.6Z" transform="translate(-167.386 -344.043)" fill="#fff"/>
        <path id="Path_156" data-name="Path 156" d="M61.471,265H48.991a.8.8,0,0,0-.8.8v15.957a.8.8,0,0,0,.8.8h12.48a.8.8,0,0,0,.8-.8V265.8A.8.8,0,0,0,61.471,265Zm-.8,15.957H49.789V266.6H60.673Z" transform="translate(-35.745 -236.809)" fill="#fff"/>
      </g>
    </g>
  </g>
</svg>
