<svg xmlns="http://www.w3.org/2000/svg" width="50" height="47.244" viewBox="0 0 50 47.244">
  <g id="Group_487" data-name="Group 487" transform="translate(-1240 -148)">
    <g id="Group_479" data-name="Group 479">
      <g id="Group_138" data-name="Group 138" transform="translate(1240 134.468)">
        <g id="Group_75" data-name="Group 75" transform="translate(3.809 25.75)">
          <g id="Group_74" data-name="Group 74" transform="translate(0 0)">
            <path id="Path_79" data-name="Path 79" d="M39.852,133.532a2.444,2.444,0,1,0,2.444,2.444A2.447,2.447,0,0,0,39.852,133.532Zm0,3.258a.815.815,0,1,1,.815-.815A.816.816,0,0,1,39.852,136.79Z" transform="translate(-37.408 -133.532)" fill="#fff"/>
          </g>
        </g>
        <g id="Group_77" data-name="Group 77" transform="translate(0 14.586)">
          <g id="Group_76" data-name="Group 76" transform="translate(0 0)">
            <path id="Path_80" data-name="Path 80" d="M50,42.141l-1.152-1.152L37.192,52.645c-.044-.05-.079-.106-.126-.154l-6.854-6.854,1.053-1.053-1.152-1.152-2.418,2.418a3.884,3.884,0,0,1-4.8.537l5.919-5.873,0,0L44.3,25.036l-1.152-1.152-14.9,14.9-1.053-1.053a.812.812,0,0,0-.576-.239H23.7l-1.39-1.39L10.9,24.7,9.749,25.85l7.57,7.57L6.9,43.837,1.1,38.521,0,39.722,9.511,48.44v2.085a.812.812,0,0,0,.239.576l3.523,3.523a2.526,2.526,0,0,0,1.949,4.038,2.536,2.536,0,0,0,2.444,2.444,2.536,2.536,0,0,0,2.444,2.444A2.534,2.534,0,0,0,23.634,65.8l.062.062a3.258,3.258,0,0,0,4.608,0L37.066,57.1a3.236,3.236,0,0,0,.955-2.3,3.286,3.286,0,0,0-.06-.615ZM8.1,44.94,18.471,34.571l2.106,2.106L10.3,46.954Zm7.854,11.835a.914.914,0,0,1-1.292-1.292l3.876-3.876A.914.914,0,0,1,19.833,52.9ZM18.4,59.218a.914.914,0,0,1-1.292-1.292l3.876-3.876a.914.914,0,0,1,1.292,1.292Zm2.444,2.444a.914.914,0,0,1-1.292-1.292l3.876-3.876a.914.914,0,0,1,1.292,1.292Zm2.444,2.444A.914.914,0,0,1,22,62.813l3.876-3.876a.914.914,0,0,1,1.292,1.292Zm12.626-8.158L27.152,64.71a1.666,1.666,0,0,1-2.226.063l3.391-3.391a2.538,2.538,0,0,0-1.709-4.331,2.536,2.536,0,0,0-2.444-2.444,2.536,2.536,0,0,0-2.444-2.444,2.537,2.537,0,0,0-4.331-1.708L14.4,53.446,11.14,50.188V48.418L21.729,37.829l1.053,1.053a.812.812,0,0,0,.576.239h2.921l.812.812L21.1,45.874a.815.815,0,0,0,0,1.158,5.508,5.508,0,0,0,7.74-.03l.213-.213,6.854,6.854a1.629,1.629,0,0,1,0,2.3Z" transform="translate(0 -23.884)" fill="#fff"/>
          </g>
        </g>
        <g id="Group_79" data-name="Group 79" transform="translate(4.25 47.694)">
          <g id="Group_78" data-name="Group 78">
            <path id="Path_81" data-name="Path 81" d="M43.174,349.044l-1.43.782c.268.49.558.977.862,1.449l1.37-.881C43.692,349.954,43.423,349.5,43.174,349.044Z" transform="translate(-41.744 -349.044)" fill="#fff"/>
          </g>
        </g>
        <g id="Group_81" data-name="Group 81" transform="translate(16.732 57.767)">
          <g id="Group_80" data-name="Group 80">
            <path id="Path_82" data-name="Path 82" d="M164.9,447.98l-.571,1.526c.522.2,1.061.375,1.6.533l.458-1.563C165.885,448.328,165.384,448.162,164.9,447.98Z" transform="translate(-164.328 -447.98)" fill="#fff"/>
          </g>
        </g>
        <g id="Group_83" data-name="Group 83" transform="translate(10.828 54.761)">
          <g id="Group_82" data-name="Group 82">
            <path id="Path_83" data-name="Path 83" d="M107.322,418.452l-.978,1.3c.448.336.915.661,1.386.964l.881-1.37C108.173,419.066,107.739,418.765,107.322,418.452Z" transform="translate(-106.344 -418.452)" fill="#fff"/>
          </g>
        </g>
        <g id="Group_85" data-name="Group 85" transform="translate(13.664 56.462)">
          <g id="Group_84" data-name="Group 84">
            <path id="Path_84" data-name="Path 84" d="M134.982,435.156l-.782,1.429c.49.268,1,.523,1.509.757l.679-1.481C135.911,435.642,135.439,435.405,134.982,435.156Z" transform="translate(-134.2 -435.156)" fill="#fff"/>
          </g>
        </g>
        <g id="Group_87" data-name="Group 87" transform="translate(8.281 52.703)">
          <g id="Group_86" data-name="Group 86">
            <path id="Path_85" data-name="Path 85" d="M82.481,398.244l-1.153,1.151c.4.4.811.784,1.234,1.15l1.068-1.231C83.236,398.973,82.85,398.612,82.481,398.244Z" transform="translate(-81.328 -398.244)" fill="#fff"/>
          </g>
        </g>
        <g id="Group_89" data-name="Group 89" transform="translate(6.073 50.331)">
          <g id="Group_88" data-name="Group 88">
            <path id="Path_86" data-name="Path 86" d="M60.951,374.948l-1.3.977c.337.45.693.891,1.058,1.312l1.231-1.068C61.6,375.778,61.267,375.367,60.951,374.948Z" transform="translate(-59.648 -374.948)" fill="#fff"/>
          </g>
        </g>
        <g id="Group_91" data-name="Group 91" transform="translate(1.425 38.727)">
          <g id="Group_90" data-name="Group 90" transform="translate(0 0)">
            <path id="Path_87" data-name="Path 87" d="M15.617,260.98l-1.625.116c.039.558.1,1.122.178,1.676l1.613-.23C15.71,262.025,15.654,261.5,15.617,260.98Z" transform="translate(-13.992 -260.98)" fill="#fff"/>
          </g>
        </g>
        <g id="Group_93" data-name="Group 93" transform="translate(1.365 35.471)">
          <g id="Group_92" data-name="Group 92">
            <path id="Path_88" data-name="Path 88" d="M13.467,229c-.04.554-.059,1.12-.059,1.683v0l1.629,0c0-.525.019-1.052.055-1.567Z" transform="translate(-13.408 -229.004)" fill="#fff"/>
          </g>
        </g>
        <g id="Group_95" data-name="Group 95" transform="translate(1.901 41.833)">
          <g id="Group_94" data-name="Group 94">
            <path id="Path_89" data-name="Path 89" d="M20.264,291.484l-1.592.346c.119.548.259,1.1.416,1.634l1.563-.458C20.506,292.507,20.375,291.995,20.264,291.484Z" transform="translate(-18.672 -291.484)" fill="#fff"/>
          </g>
        </g>
        <g id="Group_97" data-name="Group 97" transform="translate(2.849 44.844)">
          <g id="Group_96" data-name="Group 96">
            <path id="Path_90" data-name="Path 90" d="M29.51,321.052l-1.526.57c.2.523.412,1.047.645,1.556l1.482-.677C29.894,322.026,29.692,321.539,29.51,321.052Z" transform="translate(-27.984 -321.052)" fill="#fff"/>
          </g>
        </g>
        <g id="Group_99" data-name="Group 99" transform="translate(44.293 46.292)">
          <g id="Group_98" data-name="Group 98">
            <path id="Path_91" data-name="Path 91" d="M435.721,335.276c-.218.476-.455.948-.705,1.405l1.43.782c.268-.49.523-1,.757-1.509Z" transform="translate(-435.016 -335.276)" fill="#fff"/>
          </g>
        </g>
        <g id="Group_101" data-name="Group 101" transform="translate(42.593 49.048)">
          <g id="Group_100" data-name="Group 100">
            <path id="Path_92" data-name="Path 92" d="M419.218,362.34c-.283.44-.586.873-.9,1.289l1.3.978c.336-.446.66-.913.964-1.386Z" transform="translate(-418.32 -362.34)" fill="#fff"/>
          </g>
        </g>
        <g id="Group_103" data-name="Group 103" transform="translate(40.536 51.559)">
          <g id="Group_102" data-name="Group 102">
            <path id="Path_93" data-name="Path 93" d="M399.182,387c-.341.394-.7.781-1.07,1.149l1.151,1.153c.4-.4.784-.811,1.15-1.234Z" transform="translate(-398.112 -387.004)" fill="#fff"/>
          </g>
        </g>
        <g id="Group_105" data-name="Group 105" transform="translate(45.601 43.351)">
          <g id="Group_104" data-name="Group 104" transform="translate(0 0)">
            <path id="Path_94" data-name="Path 94" d="M448.351,306.4c-.147.5-.314,1-.5,1.489l1.526.57c.2-.524.375-1.063.533-1.6Z" transform="translate(-447.856 -306.396)" fill="#fff"/>
          </g>
        </g>
        <g id="Group_107" data-name="Group 107" transform="translate(46.482 40.285)">
          <g id="Group_106" data-name="Group 106" transform="translate(0 0)">
            <path id="Path_95" data-name="Path 95" d="M456.79,276.284c-.074.518-.168,1.038-.278,1.545l1.592.345c.118-.545.218-1.1.3-1.66Z" transform="translate(-456.512 -276.284)" fill="#fff"/>
          </g>
        </g>
        <g id="Group_109" data-name="Group 109" transform="translate(38.163 53.779)">
          <g id="Group_108" data-name="Group 108">
            <path id="Path_96" data-name="Path 96" d="M376.031,408.812c-.393.34-.8.672-1.223.986l.977,1.3c.449-.336.89-.692,1.312-1.058Z" transform="translate(-374.808 -408.812)" fill="#fff"/>
          </g>
        </g>
        <g id="Group_111" data-name="Group 111" transform="translate(19.968 58.65)">
          <g id="Group_110" data-name="Group 110">
            <path id="Path_97" data-name="Path 97" d="M196.457,456.652l-.345,1.592c.545.118,1.1.218,1.66.3l.23-1.612C197.484,456.855,196.964,456.761,196.457,456.652Z" transform="translate(-196.112 -456.652)" fill="#fff"/>
          </g>
        </g>
        <g id="Group_113" data-name="Group 113" transform="translate(46.926 37.154)">
          <g id="Group_112" data-name="Group 112">
            <path id="Path_98" data-name="Path 98" d="M460.927,245.532c0,.524-.018,1.052-.055,1.57l1.625.115c.039-.556.059-1.123.059-1.685Z" transform="translate(-460.872 -245.532)" fill="#fff"/>
          </g>
        </g>
        <g id="Group_115" data-name="Group 115" transform="translate(26.559 58.926)">
          <g id="Group_114" data-name="Group 114">
            <path id="Path_99" data-name="Path 99" d="M262.4,459.356c-.516.073-1.042.13-1.562.166l.116,1.625c.558-.039,1.122-.1,1.676-.178Z" transform="translate(-260.84 -459.356)" fill="#fff"/>
          </g>
        </g>
        <g id="Group_117" data-name="Group 117" transform="translate(23.304 59.093)">
          <g id="Group_116" data-name="Group 116">
            <path id="Path_100" data-name="Path 100" d="M230.563,461.051c-.524,0-1.051-.018-1.568-.055l-.115,1.625c.556.039,1.122.059,1.684.059Z" transform="translate(-228.88 -460.996)" fill="#fff"/>
          </g>
        </g>
        <g id="Group_119" data-name="Group 119" transform="translate(35.526 55.661)">
          <g id="Group_118" data-name="Group 118">
            <path id="Path_101" data-name="Path 101" d="M350.261,427.292c-.437.281-.89.551-1.349.8l.782,1.43c.492-.27.979-.559,1.448-.861Z" transform="translate(-348.912 -427.292)" fill="#fff"/>
          </g>
        </g>
        <g id="Group_121" data-name="Group 121" transform="translate(32.676 57.165)">
          <g id="Group_120" data-name="Group 120">
            <path id="Path_102" data-name="Path 102" d="M322.368,442.068c-.475.217-.962.419-1.448.6l.569,1.526c.523-.2,1.047-.412,1.556-.645Z" transform="translate(-320.92 -442.068)" fill="#fff"/>
          </g>
        </g>
        <g id="Group_123" data-name="Group 123" transform="translate(29.665 58.262)">
          <g id="Group_122" data-name="Group 122">
            <path id="Path_103" data-name="Path 103" d="M292.866,452.836c-.5.146-1.011.276-1.522.388l.346,1.592c.548-.119,1.1-.259,1.634-.416Z" transform="translate(-291.344 -452.836)" fill="#fff"/>
          </g>
        </g>
        <g id="Group_125" data-name="Group 125" transform="translate(33.772 15.598)">
          <g id="Group_124" data-name="Group 124" transform="translate(0 0)">
            <path id="Path_104" data-name="Path 104" d="M332.4,33.82l-.718,1.463c.452.222.917.472,1.382.743l.821-1.408C333.384,34.327,332.884,34.059,332.4,33.82Z" transform="translate(-331.68 -33.82)" fill="#fff"/>
          </g>
        </g>
        <g id="Group_127" data-name="Group 127" transform="translate(24.647 13.532)">
          <g id="Group_126" data-name="Group 126" transform="translate(0 0)">
            <path id="Path_105" data-name="Path 105" d="M242.4,13.532l-.34,0,.024,1.629.317,0q.645,0,1.261.029l.077-1.627C243.306,13.543,242.861,13.532,242.4,13.532Z" transform="translate(-242.064 -13.532)" fill="#fff"/>
          </g>
        </g>
        <g id="Group_129" data-name="Group 129" transform="translate(30.871 14.365)">
          <g id="Group_128" data-name="Group 128" transform="translate(0 0)">
            <path id="Path_106" data-name="Path 106" d="M303.649,21.716l-.457,1.564c.493.144.988.313,1.472.5l.594-1.517C304.729,22.058,304.188,21.874,303.649,21.716Z" transform="translate(-303.192 -21.716)" fill="#fff"/>
          </g>
        </g>
        <g id="Group_131" data-name="Group 131" transform="translate(27.815 13.699)">
          <g id="Group_130" data-name="Group 130">
            <path id="Path_107" data-name="Path 107" d="M273.365,15.172l-.189,1.618c.526.062,1.046.143,1.544.243l.318-1.6C274.5,15.327,273.935,15.239,273.365,15.172Z" transform="translate(-273.176 -15.172)" fill="#fff"/>
          </g>
        </g>
        <g id="Group_133" data-name="Group 133" transform="translate(14.863 15.137)">
          <g id="Group_132" data-name="Group 132" transform="translate(0 0)">
            <path id="Path_108" data-name="Path 108" d="M147.524,29.292c-.522.2-1.043.428-1.548.669l.7,1.472c.471-.223.956-.433,1.443-.623Z" transform="translate(-145.976 -29.292)" fill="#fff"/>
          </g>
        </g>
        <g id="Group_135" data-name="Group 135" transform="translate(18.004 14.142)">
          <g id="Group_134" data-name="Group 134" transform="translate(0 0)">
            <path id="Path_109" data-name="Path 109" d="M178.452,19.524c-.547.127-1.095.275-1.628.44l.481,1.557c.5-.154,1.006-.292,1.515-.41Z" transform="translate(-176.824 -19.524)" fill="#fff"/>
          </g>
        </g>
        <g id="Group_137" data-name="Group 137" transform="translate(21.288 13.618)">
          <g id="Group_136" data-name="Group 136" transform="translate(0 0)">
            <path id="Path_110" data-name="Path 110" d="M210.755,14.372c-.56.048-1.123.116-1.675.2l.254,1.61c.512-.081,1.037-.145,1.558-.189Z" transform="translate(-209.08 -14.372)" fill="#fff"/>
          </g>
        </g>
      </g>
    </g>
  </g>
</svg>
