<svg xmlns="http://www.w3.org/2000/svg" width="50" height="49.792" viewBox="0 0 50 49.792">
  <g id="Group_484" data-name="Group 484" transform="translate(-1810 -148)">
    <g id="Group_223" data-name="Group 223" transform="translate(1810 148)">
      <g id="Group_210" data-name="Group 210" transform="translate(38.355 15.662)">
        <g id="Group_209" data-name="Group 209">
          <path id="Path_158" data-name="Path 158" d="M398.51,161.243a14.29,14.29,0,0,0-5.026-.86.732.732,0,0,0,0,1.465,12.647,12.647,0,0,1,4.371.706.732.732,0,0,0,.655-1.31Z" transform="translate(-392.751 -160.383)" fill="#fff"/>
        </g>
      </g>
      <g id="Group_212" data-name="Group 212">
        <g id="Group_211" data-name="Group 211">
          <path id="Path_159" data-name="Path 159" d="M47.765,26.951l-3.025-.864a.307.307,0,0,1-.222-.294v-1.01a5.5,5.5,0,0,0,.7-.574,5.388,5.388,0,0,0,1.649-3.9V18.917l.292-.585a4.673,4.673,0,0,0,.491-2.079V12.479a.732.732,0,0,0-.732-.732H39.87a4.653,4.653,0,0,0-4.648,4.648v.044a3.885,3.885,0,0,0,.408,1.728l.375.75v1.2a5.715,5.715,0,0,0,2.349,4.621v1.058c0,.163,0,.231-.6.4l-1.476.422L32,25.065a.732.732,0,0,0-.2-.561L30.44,23.071V20.665c.144-.119.286-.241.424-.37a8.6,8.6,0,0,0,2.708-6.249V12.124a8.466,8.466,0,0,0,.783-3.56V.732A.732.732,0,0,0,33.624,0H22.66a7.005,7.005,0,0,0-7,7V8.564a8.466,8.466,0,0,0,.783,3.56v1.653a8.95,8.95,0,0,0,3.133,6.831v2.463L18.214,24.5a.732.732,0,0,0-.2.561L13.508,26.7a3.841,3.841,0,0,0-.905.474l-.708-.354A5.594,5.594,0,0,0,14.7,24.554a.732.732,0,0,0,0-.655,13.012,13.012,0,0,1-.643-4.547c-.017-.518-.033-1.007-.064-1.442A6.371,6.371,0,0,0,7.78,11.747a6.371,6.371,0,0,0-6.212,6.162c-.031.436-.047.925-.064,1.443A13.012,13.012,0,0,1,.86,23.9a.732.732,0,0,0,0,.655,5.593,5.593,0,0,0,2.809,2.269L1.7,27.805A3.066,3.066,0,0,0,0,30.562V45.153a.732.732,0,0,0,1.465,0V30.562a1.608,1.608,0,0,1,.894-1.446l2.448-1.224.851.809a3.08,3.08,0,0,0,4.246,0l.851-.809.8.4a3.857,3.857,0,0,0-.589,2.045V49.059a.732.732,0,0,0,1.465,0V30.336a2.407,2.407,0,0,1,1.58-2.256l4.751-1.728,1.978,2.967a1.51,1.51,0,0,0,1.112.667q.076.007.151.007a1.51,1.51,0,0,0,1.07-.444l1.207-1.207V49.059a.732.732,0,0,0,1.465,0V28.344l1.207,1.207a1.509,1.509,0,0,0,1.07.444q.075,0,.151-.007a1.51,1.51,0,0,0,1.112-.667l1.978-2.967,4.751,1.728a2.408,2.408,0,0,1,1.58,2.256V49.059a.732.732,0,0,0,1.465,0V30.336a3.872,3.872,0,0,0-1.083-2.68l.181-.052a4.016,4.016,0,0,0,.682-.246l1.87,1.87V45.153a.732.732,0,0,0,1.465,0V29.229l1.857-1.857a1.742,1.742,0,0,0,.312.124l3.025.864a1.624,1.624,0,0,1,1.173,1.555V45.153a.732.732,0,0,0,1.465,0V29.914A3.1,3.1,0,0,0,47.765,26.951ZM4.7,25.657a5.265,5.265,0,0,1-2.351-1.509,8.073,8.073,0,0,0,.417-1.754A5.462,5.462,0,0,0,4.7,24.779Zm4.2,1.982a1.616,1.616,0,0,1-2.228,0l-.681-.647a1.515,1.515,0,0,0,.178-.715V25.5a5.446,5.446,0,0,0,3.234,0v.78a1.515,1.515,0,0,0,.178.716ZM7.781,24.277a3.971,3.971,0,0,1-3.966-3.966.728.728,0,0,0-.853-.722c0-.063,0-.126.006-.188.016-.5.032-.979.061-1.387A5.438,5.438,0,0,1,4.51,14.6a4.551,4.551,0,0,1,6.541,0,5.438,5.438,0,0,1,1.481,3.415c.029.408.045.883.061,1.387l0,.131A6.581,6.581,0,0,0,8.98,16.887a9.192,9.192,0,0,0-2.786-.441.732.732,0,0,0-.507.224L4.366,18.04A.732.732,0,1,0,5.42,19.057l1.1-1.14c.947.046,3.994.4,5.178,3.01A3.957,3.957,0,0,1,7.781,24.277Zm3.081,1.383v-.874A5.418,5.418,0,0,0,12.8,22.4a8.063,8.063,0,0,0,.417,1.75A5.29,5.29,0,0,1,10.862,25.659ZM17.91,13.777V11.96a.733.733,0,0,0-.073-.318,7.025,7.025,0,0,1-.71-3.078V7A5.539,5.539,0,0,1,22.66,1.465H32.891v7.1a7.025,7.025,0,0,1-.71,3.078.733.733,0,0,0-.073.318v2.085a7.031,7.031,0,0,1-2.245,5.18,7.288,7.288,0,0,1-.562.476l-.013.009a7.042,7.042,0,0,1-4.753,1.418A7.254,7.254,0,0,1,17.91,13.777Zm4.124,14.737a.046.046,0,0,1-.041.015.047.047,0,0,1-.037-.022L19.679,25.09l.733-.77,3.456,2.362Zm2.975-2.826-3.966-2.711V21.61a8.247,8.247,0,0,0,3.4.981q.29.019.576.019a8.484,8.484,0,0,0,3.959-.97v1.338Zm3.053,2.819a.047.047,0,0,1-.037.022.045.045,0,0,1-.041-.015l-1.833-1.833,3.456-2.362.733.77Zm13.374-.618-1.662-1.662a2.01,2.01,0,0,0,.045-.435v-.309a5.136,5.136,0,0,0,1.45.256l.169,0a5.44,5.44,0,0,0,1.615-.244v.295a1.751,1.751,0,0,0,.053.427ZM44.2,23.157a3.936,3.936,0,0,1-2.884,1.118,4.1,4.1,0,0,1-3.844-4.161V18.744a.732.732,0,0,0-.077-.328l-.452-.9a2.413,2.413,0,0,1-.253-1.073v-.044a3.187,3.187,0,0,1,3.183-3.183h6.316v3.042a3.2,3.2,0,0,1-.336,1.424l-.37.739a.732.732,0,0,0-.077.328v1.566A3.935,3.935,0,0,1,44.2,23.157Z" fill="#fff"/>
        </g>
      </g>
      <g id="Group_214" data-name="Group 214" transform="translate(45.403 30.542)">
        <g id="Group_213" data-name="Group 213">
          <path id="Path_160" data-name="Path 160" d="M465.655,312.748a.732.732,0,0,0-.732.732v13.878a.732.732,0,0,0,1.465,0V313.48A.732.732,0,0,0,465.655,312.748Z" transform="translate(-464.923 -312.748)" fill="#fff"/>
        </g>
      </g>
      <g id="Group_216" data-name="Group 216" transform="translate(3.133 31.51)">
        <g id="Group_215" data-name="Group 215">
          <path id="Path_161" data-name="Path 161" d="M32.809,322.662a.732.732,0,0,0-.732.732V336.3a.732.732,0,0,0,1.465,0v-12.91A.733.733,0,0,0,32.809,322.662Z" transform="translate(-32.077 -322.662)" fill="#fff"/>
        </g>
      </g>
      <g id="Group_218" data-name="Group 218" transform="translate(18.795 6.654)">
        <g id="Group_217" data-name="Group 217">
          <path id="Path_162" data-name="Path 162" d="M204.674,70.312c-2.77-2.77-8.566-2.241-10.929-1.884a1.5,1.5,0,0,0-1.285,1.5v1.687a.732.732,0,0,0,1.465,0V69.925a.048.048,0,0,1,.038-.05,23.139,23.139,0,0,1,4.758-.232c2.284.152,3.938.725,4.917,1.7a.732.732,0,0,0,1.036-1.036Z" transform="translate(-192.46 -68.137)" fill="#fff"/>
        </g>
      </g>
      <g id="Group_220" data-name="Group 220" transform="translate(15.663 32.108)">
        <g id="Group_219" data-name="Group 219">
          <path id="Path_163" data-name="Path 163" d="M161.116,328.787a.732.732,0,0,0-.732.732v16.218a.732.732,0,0,0,1.465,0V329.519A.733.733,0,0,0,161.116,328.787Z" transform="translate(-160.384 -328.787)" fill="#fff"/>
        </g>
      </g>
      <g id="Group_222" data-name="Group 222" transform="translate(32.891 32.108)">
        <g id="Group_221" data-name="Group 221">
          <path id="Path_164" data-name="Path 164" d="M337.538,328.787a.732.732,0,0,0-.732.732v16.218a.732.732,0,0,0,1.465,0V329.519A.732.732,0,0,0,337.538,328.787Z" transform="translate(-336.806 -328.787)" fill="#fff"/>
        </g>
      </g>
    </g>
  </g>
</svg>
