<svg xmlns="http://www.w3.org/2000/svg" width="50" height="49.696" viewBox="0 0 50 49.696">
  <g id="Group_488" data-name="Group 488" transform="translate(0 -1.999)">
    <g id="Group_478" data-name="Group 478">
      <path id="Path_74" data-name="Path 74" d="M49.268,47h-.885v-2.5a.733.733,0,0,0-.732-.732h-2.5v-2.5a.732.732,0,0,0-.732-.732h-.885V24.5h.885a.732.732,0,0,0,.732-.732v-2.5h2.5a.732.732,0,0,0,.732-.732V17.292a.732.732,0,0,0-.732-.732H46.261L25.417,2.129a.733.733,0,0,0-.834,0L3.74,16.56H2.35a.732.732,0,0,0-.732.732v3.236a.733.733,0,0,0,.732.732h2.5v2.5a.733.733,0,0,0,.732.732h.885V40.524H5.586a.732.732,0,0,0-.732.732v2.5H2.35a.733.733,0,0,0-.732.732V47H.732A.732.732,0,0,0,0,47.728v3.235a.732.732,0,0,0,.732.732H49.268A.732.732,0,0,0,50,50.963V47.728A.732.732,0,0,0,49.268,47ZM43.682,43.76H37.058V41.989h6.624Zm-5.007-3.236V24.5h3.389V40.524Zm5.007-17.493H37.058V21.26h6.624ZM36.325,24.5h.885V40.524h-.885a.732.732,0,0,0-.732.732v2.5H29.777v-2.5a.732.732,0,0,0-.732-.732h-.885V24.5h.885a.733.733,0,0,0,.732-.732v-2.5h5.816v2.5A.732.732,0,0,0,36.325,24.5ZM21.688,21.26h6.624v1.771H21.688ZM23.305,24.5h3.389V40.524H23.305Zm5.007,17.493V43.76H21.688V41.989ZM3.083,18.025H18.794a.732.732,0,0,0,0-1.465H6.313L25,3.622,43.687,16.56H18.794a.732.732,0,1,0,0,1.465H46.917V19.8H3.083ZM6.318,21.26h6.625v1.771H6.318ZM11.325,24.5V40.524H7.936V24.5ZM6.318,41.989h6.625V43.76H6.318Zm7.357-1.465H12.79V24.5h.885a.733.733,0,0,0,.732-.732v-2.5h5.816v2.5a.732.732,0,0,0,.732.732h.885V40.524h-.885a.732.732,0,0,0-.732.732v2.5H14.408v-2.5A.732.732,0,0,0,13.675,40.524Zm-10.593,4.7H46.917V47H3.083Zm45.453,5.006H1.465V48.46h47.07Z" fill="#fff"/>
    </g>
  </g>
</svg>
