<svg xmlns="http://www.w3.org/2000/svg" width="50" height="50" viewBox="0 0 50 50">
  <g id="Group_486" data-name="Group 486" transform="translate(-1430 -148)">
    <g id="Group_199" data-name="Group 199" transform="translate(1430 148)">
      <g id="Group_480" data-name="Group 480">
        <g id="Group_186" data-name="Group 186">
          <g id="Group_185" data-name="Group 185">
            <path id="Path_129" data-name="Path 129" d="M50,25A24.986,24.986,0,0,0,12.735,3.226H9.677V0H4.839V10.231A24.774,24.774,0,0,0,0,25,25.011,25.011,0,0,0,33.913,48.362a10.45,10.45,0,0,0,12.452-.907L45.31,46.234a8.871,8.871,0,1,1,3.077-6.718,8.776,8.776,0,0,1-1.956,5.557l1.257,1.011A10.518,10.518,0,0,0,50,39.516a10.412,10.412,0,0,0-1.64-5.606A24.9,24.9,0,0,0,50,25ZM12.9,8.065h1.613v11.29H12.9ZM9.677,4.839H11.29V19.355H9.677ZM6.452,1.613H8.065V19.355H6.452ZM24.194,48.367a23.41,23.41,0,0,1-22.56-22.56h22.56Zm0-24.173H1.645A23.111,23.111,0,0,1,4.839,13.172v7.8H22.581V12.9H19.355V9.677H16.129V6.452H12.9V4.994a23.287,23.287,0,0,1,11.29-3.352Zm-8.065-4.839V11.29h1.613v8.065Zm3.226,0V14.516h1.613v4.839Zm29.012,4.839h-6.9l5.931-5.931A23.265,23.265,0,0,1,48.367,24.194ZM44.3,11.815,35.3,20.822l1.14,1.14,8.75-8.75a23.357,23.357,0,0,1,1.622,3.356l-7.626,7.626H34.2l1.043-1.043-1.14-1.14-2.183,2.183H26.947l15.14-15.14A23.662,23.662,0,0,1,44.3,11.815ZM25.806,1.633a23.265,23.265,0,0,1,5.931.973L25.806,8.537Zm0,16.443,9.8-9.8-1.14-1.14-8.66,8.66V10.818l7.626-7.626a23.188,23.188,0,0,1,3.356,1.622l-1.3,1.3,1.14,1.14L38.185,5.7a23.578,23.578,0,0,1,2.76,2.217l-15.14,15.14Zm13.71,10.956A10.468,10.468,0,0,0,32.4,47.193a23.246,23.246,0,0,1-6.594,1.176V25.806H48.369A23.266,23.266,0,0,1,47.19,32.4,10.444,10.444,0,0,0,39.516,29.032Z" fill="#fff"/>
          </g>
        </g>
      </g>
      <g id="Group_188" data-name="Group 188" transform="translate(9.917 29.268)">
        <g id="Group_187" data-name="Group 187">
          <rect id="Rectangle_66" data-name="Rectangle 66" width="13.686" height="1.613" transform="translate(0 9.678) rotate(-45)" fill="#fff"/>
        </g>
      </g>
      <g id="Group_190" data-name="Group 190" transform="translate(16.129 35.484)">
        <g id="Group_189" data-name="Group 189">
          <path id="Path_130" data-name="Path 130" d="M162.419,352a2.419,2.419,0,1,0,2.419,2.419A2.422,2.422,0,0,0,162.419,352Zm0,3.226a.806.806,0,1,1,.806-.806A.807.807,0,0,1,162.419,355.226Z" transform="translate(-160 -352)" fill="#fff"/>
        </g>
      </g>
      <g id="Group_192" data-name="Group 192" transform="translate(9.677 29.032)">
        <g id="Group_191" data-name="Group 191">
          <path id="Path_131" data-name="Path 131" d="M98.419,288a2.419,2.419,0,1,0,2.419,2.419A2.422,2.422,0,0,0,98.419,288Zm0,3.226a.806.806,0,1,1,.806-.806A.807.807,0,0,1,98.419,291.226Z" transform="translate(-96 -288)" fill="#fff"/>
        </g>
      </g>
      <g id="Group_194" data-name="Group 194" transform="translate(36.29 32.258)">
        <g id="Group_193" data-name="Group 193">
          <path id="Path_132" data-name="Path 132" d="M363.226,326.452a1.613,1.613,0,1,1,1.613-1.613h1.613a3.222,3.222,0,0,0-2.419-3.111V320h-1.613v1.727a3.219,3.219,0,0,0,.806,6.337,1.613,1.613,0,1,1-1.613,1.613H360a3.222,3.222,0,0,0,2.419,3.111v1.727h1.613v-1.727a3.219,3.219,0,0,0-.806-6.337Z" transform="translate(-360 -320)" fill="#fff"/>
        </g>
      </g>
      <g id="Group_196" data-name="Group 196" transform="translate(45.161 38.71)">
        <g id="Group_195" data-name="Group 195">
          <rect id="Rectangle_67" data-name="Rectangle 67" width="1.613" height="1.613" fill="#fff"/>
        </g>
      </g>
      <g id="Group_198" data-name="Group 198" transform="translate(32.258 38.71)">
        <g id="Group_197" data-name="Group 197">
          <rect id="Rectangle_68" data-name="Rectangle 68" width="1.613" height="1.613" fill="#fff"/>
        </g>
      </g>
    </g>
  </g>
</svg>
