<svg xmlns="http://www.w3.org/2000/svg" width="50" height="50" viewBox="0 0 50 50">
  <g id="Group_483" data-name="Group 483" transform="translate(-2000 -148)">
    <g id="Group_226" data-name="Group 226" transform="translate(2000 148)">
      <path id="Path_165" data-name="Path 165" d="M34.677,23.387a5.637,5.637,0,0,0-4.626,2.419H26.613V20.631a5.659,5.659,0,0,0-4.16-5.447L17.742,13.9V12.69a5.639,5.639,0,0,0,2.419-4.626V5.645a5.645,5.645,0,0,0-11.29,0V8.065A5.637,5.637,0,0,0,11.29,12.69V13.9L6.579,15.185a5.659,5.659,0,0,0-4.16,5.447v5.175H0V50H50V25.806H39.3A5.637,5.637,0,0,0,34.677,23.387Zm0,1.613a4.037,4.037,0,0,1,4.032,4.032v2.419a4.048,4.048,0,0,1-2.017,3.489l-.4.233V38.5l6.34,1.9a2.4,2.4,0,0,1,1.724,2.318v5.664H25V42.723A2.4,2.4,0,0,1,26.724,40.4l6.34-1.9v-3.33l-.4-.233a4.048,4.048,0,0,1-2.017-3.489V29.032A4.037,4.037,0,0,1,34.677,25ZM22.028,16.741A4.042,4.042,0,0,1,25,20.631v5.175H21.774V19.355H20.161v6.452H15.323V16.828a3.742,3.742,0,0,0,1.964-1.381ZM10.484,8.065V5.645a4.032,4.032,0,0,1,8.065,0V8.065a4.032,4.032,0,0,1-8.065,0Zm4.032,5.645a5.613,5.613,0,0,0,1.613-.238v.822a2.06,2.06,0,0,1-1.613,1.029A2.064,2.064,0,0,1,12.9,14.294v-.822A5.637,5.637,0,0,0,14.516,13.71ZM4.032,20.631A4.042,4.042,0,0,1,7,16.741l4.742-1.294a3.745,3.745,0,0,0,1.964,1.381v8.978H8.871V19.355H7.258v6.452H4.032ZM1.613,27.419H29.27a5.613,5.613,0,0,0-.238,1.613v2.419a5.663,5.663,0,0,0,2.419,4.627V37.3L26.26,38.86a4.007,4.007,0,0,0-2.873,3.862v5.664H1.613Zm46.774,0V48.387H45.968V42.723a4.009,4.009,0,0,0-2.873-3.863L37.9,37.3V36.079a5.664,5.664,0,0,0,2.419-4.627V29.032a5.613,5.613,0,0,0-.238-1.613Z" fill="#fff"/>
      <path id="Path_166" data-name="Path 166" d="M168,192h1.613v1.613H168Z" transform="translate(-151.065 -172.645)" fill="#fff"/>
      <path id="Path_167" data-name="Path 167" d="M168,224h1.613v1.613H168Z" transform="translate(-151.065 -201.419)" fill="#fff"/>
      <path id="Path_168" data-name="Path 168" d="M72,288v17.742H86.516V288Zm12.9,16.129H73.613V289.613H84.9Z" transform="translate(-64.742 -258.968)" fill="#fff"/>
      <path id="Path_169" data-name="Path 169" d="M104,320h8.065v1.613H104Z" transform="translate(-93.516 -287.742)" fill="#fff"/>
      <path id="Path_170" data-name="Path 170" d="M104,384h8.065v1.613H104Z" transform="translate(-93.516 -345.29)" fill="#fff"/>
      <path id="Path_171" data-name="Path 171" d="M104,416h8.065v1.613H104Z" transform="translate(-93.516 -374.065)" fill="#fff"/>
      <path id="Path_172" data-name="Path 172" d="M104,352h3.226v1.613H104Z" transform="translate(-93.516 -316.516)" fill="#fff"/>
      <path id="Path_173" data-name="Path 173" d="M152,352h3.226v1.613H152Z" transform="translate(-136.677 -316.516)" fill="#fff"/>
      <path id="Path_174" data-name="Path 174" d="M336,48h1.613v1.613H336Z" transform="translate(-302.129 -43.161)" fill="#fff"/>
      <path id="Path_175" data-name="Path 175" d="M368,48h1.613v1.613H368Z" transform="translate(-330.903 -43.161)" fill="#fff"/>
      <path id="Path_176" data-name="Path 176" d="M400,48h1.613v1.613H400Z" transform="translate(-359.677 -43.161)" fill="#fff"/>
      <path id="Path_177" data-name="Path 177" d="M432,48h1.613v1.613H432Z" transform="translate(-388.452 -43.161)" fill="#fff"/>
      <path id="Path_178" data-name="Path 178" d="M293.34,11.282l-.861,4.023L299.5,11.29h3.818a5.645,5.645,0,1,0,0-11.29h-9.677a5.645,5.645,0,0,0-.3,11.282Zm.3-9.67h9.677a4.032,4.032,0,0,1,0,8.065h-4.247l-4.265,2.436.523-2.436h-1.689a4.032,4.032,0,0,1,0-8.065Z" transform="translate(-258.968)" fill="#fff"/>
    </g>
  </g>
</svg>
