<svg xmlns="http://www.w3.org/2000/svg" width="17.309" height="15.071" viewBox="0 0 17.309 15.071">
  <g id="Group_511" data-name="Group 511" transform="translate(0 -19.401)">
    <path id="Path_445" data-name="Path 445" d="M.306,26.627l3.988,1.489L5.838,33.08a.47.47,0,0,0,.746.225l2.223-1.812a.663.663,0,0,1,.809-.023l4.01,2.911a.47.47,0,0,0,.736-.284L17.3,19.967a.47.47,0,0,0-.629-.534L.3,25.747A.47.47,0,0,0,.306,26.627Zm5.283.7,7.795-4.8a.136.136,0,0,1,.164.215l-6.433,5.98a1.334,1.334,0,0,0-.413.8l-.219,1.624a.2.2,0,0,1-.393.029l-.843-2.961A.785.785,0,0,1,5.589,27.323Z" transform="translate(0)" fill="#fff"/>
  </g>
</svg>
